<svg id="Capa_1" enable-background="new 0 0 512 512" height="512" viewBox="0 0 512 512" width="512" xmlns="http://www.w3.org/2000/svg"><g><path d="m497 31.29v-23.79c0-4.142-3.358-7.5-7.5-7.5s-7.5 3.358-7.5 7.5v23.79c-8.729 3.096-15 11.432-15 21.21v15c0 107.869-82.163 198.507-188.5 209.798v-33.054c41.598-5.247 79.929-24.989 108.56-56.06 30.377-32.967 47.106-75.827 47.106-120.685v-15c0-9.778-6.271-18.114-15-21.21v-23.789c0-4.142-3.358-7.5-7.5-7.5s-7.5 3.358-7.5 7.5v23.79c-8.729 3.096-15 11.433-15 21.21v15c0 65.484-47.018 120.513-110.667 131.273v-33.483c20.775-4.773 39.645-16.149 53.659-32.473 15.589-18.158 24.175-41.355 24.175-65.317v-15c0-9.778-6.271-18.114-15-21.21v-23.79c0-4.142-3.358-7.5-7.5-7.5s-7.5 3.358-7.5 7.5v23.79c-8.729 3.096-15 11.432-15 21.209v15c0 22.233-13.102 41.844-32.833 50.572v-65.571c0-9.778-6.271-18.114-15-21.21v-23.79c0-4.142-3.358-7.5-7.5-7.5s-7.5 3.358-7.5 7.5v23.79c-8.729 3.096-15 11.432-15 21.21v65.572c-19.731-8.728-32.833-28.339-32.833-50.572v-15c0-9.778-6.271-18.114-15-21.21v-23.79c0-4.142-3.358-7.5-7.5-7.5s-7.5 3.358-7.5 7.5v23.79c-8.729 3.096-15 11.432-15 21.21v15c0 23.962 8.585 47.159 24.175 65.317 14.014 16.324 32.883 27.7 53.659 32.473v33.483c-63.649-10.76-110.667-65.79-110.667-131.273v-15c0-9.778-6.271-18.114-15-21.21v-23.79c0-4.142-3.358-7.5-7.5-7.5s-7.5 3.358-7.5 7.5v23.79c-8.729 3.096-15 11.432-15 21.21v15c0 44.858 16.729 87.718 47.106 120.685 28.631 31.071 66.962 50.813 108.56 56.06v33.054c-106.337-11.292-188.5-101.93-188.5-209.799v-15c0-9.778-6.271-18.114-15-21.21v-23.79c0-4.142-3.358-7.5-7.5-7.5s-7.5 3.358-7.5 7.5v23.79c-8.729 3.096-15 11.432-15 21.21v15c0 132.881 102.002 243.551 233.5 255.006v84.86c-26.068 2.535-40.455 18.14-53.267 32.054-13.628 14.799-25.397 27.58-49.733 27.58-20.678 0-37.5 16.822-37.5 37.5 0 4.142 3.358 7.5 7.5 7.5h311c4.142 0 7.5-3.358 7.5-7.5 0-20.678-16.822-37.5-37.5-37.5-24.336 0-36.105-12.781-49.733-27.581-12.813-13.914-27.2-29.519-53.267-32.054v-84.86c131.498-11.454 233.5-122.124 233.5-255.005v-15c0-9.778-6.271-18.114-15-21.21zm-7.5 13.71c4.136 0 7.5 3.364 7.5 7.5v7.5h-15v-7.5c0-4.136 3.364-7.5 7.5-7.5zm-77.833 0c4.135 0 7.5 3.364 7.5 7.5v7.5h-15v-7.5c0-4.136 3.364-7.5 7.5-7.5zm-77.834 0c4.136 0 7.5 3.364 7.5 7.5v7.5h-15v-7.5c0-4.136 3.365-7.5 7.5-7.5zm-77.833 0c4.136 0 7.5 3.364 7.5 7.5v7.5h-15v-7.5c0-4.136 3.364-7.5 7.5-7.5zm-77.833 0c4.135 0 7.5 3.364 7.5 7.5v7.5h-15v-7.5c0-4.136 3.364-7.5 7.5-7.5zm-77.834 0c4.136 0 7.5 3.364 7.5 7.5v7.5h-15v-7.5c0-4.136 3.365-7.5 7.5-7.5zm-77.833 0c4.136 0 7.5 3.364 7.5 7.5v7.5h-15v-7.5c0-4.136 3.364-7.5 7.5-7.5zm298.233 404.581c5.41 5.875 11.105 12.05 17.836 17.419h-67.569c-4.142 0-7.5 3.358-7.5 7.5s3.358 7.5 7.5 7.5h110.5c9.778 0 18.12 6.27 21.215 15h-293.43c3.095-8.73 11.437-15 21.215-15h110.5c4.142 0 7.5-3.358 7.5-7.5s-3.358-7.5-7.5-7.5h-67.569c6.731-5.369 12.425-11.544 17.836-17.419 13.628-14.8 25.397-27.581 49.733-27.581h30c24.336 0 36.105 12.781 49.733 27.581zm-50.179-141.532c-3.962.236-7.054 3.518-7.054 7.487v91.464h-15v-91.464c0-3.969-3.092-7.251-7.054-7.487-124.476-7.413-222.5-109.1-226.317-233.049h15.009c1.799 54.908 23.294 106.89 61.015 147.091 39.25 41.831 92.287 67 149.34 70.869 2.067.134 4.11-.585 5.628-2.003s2.379-3.403 2.379-5.48v-47.975c0-3.89-2.974-7.134-6.849-7.472-80.95-7.05-144.882-74.441-148.639-155.03h15.016c1.715 34.09 15.084 66.476 38.091 91.893 24.51 27.078 57.925 44.102 94.091 47.936 2.115.227 4.225-.459 5.807-1.882 1.581-1.422 2.484-3.449 2.484-5.576v-48.249c0-3.678-2.667-6.813-6.297-7.403-38.962-6.331-67.876-38.005-71.209-76.718h15.083c3.093 29.237 24.065 53.678 53.138 60.802 2.237.548 4.603.038 6.415-1.384s2.871-3.598 2.871-5.901v-53.518h15v53.517c0 2.303 1.059 4.479 2.871 5.901 1.813 1.421 4.178 1.931 6.415 1.384 29.073-7.124 50.045-31.564 53.138-60.802h15.083c-3.333 38.713-32.247 70.387-71.209 76.718-3.63.59-6.297 3.725-6.297 7.403v48.249c0 2.127.903 4.153 2.484 5.576 1.582 1.423 3.698 2.11 5.807 1.882 36.166-3.834 69.582-20.858 94.091-47.936 23.007-25.417 36.375-57.802 38.091-91.893h15.016c-3.757 80.589-67.689 147.98-148.639 155.031-3.875.337-6.849 3.582-6.849 7.472v47.975c0 2.077.861 4.062 2.379 5.48s3.558 2.142 5.628 2.003c57.054-3.87 110.09-29.038 149.34-70.869 37.717-40.201 59.213-92.183 61.011-147.091h15.009c-3.817 123.949-101.841 225.636-226.317 233.049z"/></g></svg>