<?xml version="1.0" standalone="no"?>
<!DOCTYPE svg PUBLIC "-//W3C//DTD SVG 20010904//EN"
 "http://www.w3.org/TR/2001/REC-SVG-20010904/DTD/svg10.dtd">
<svg version="1.0" xmlns="http://www.w3.org/2000/svg"
 width="400.000000pt" height="400.000000pt" viewBox="0 0 400.000000 400.000000"
 preserveAspectRatio="xMidYMid meet">
<metadata>
Created by potrace 1.11, written by Peter Selinger 2001-2013
</metadata>
<g transform="translate(0.000000,400.000000) scale(0.100000,-0.100000)"
fill="#000000" stroke="none">
<path d="M90 3985 c0 -19 9 -19 34 0 19 14 19 15 -7 15 -17 0 -27 -5 -27 -15z"/>
<path d="M327 3983 c13 -38 43 -58 43 -30 0 14 -31 47 -43 47 -3 0 -4 -8 0
-17z"/>
<path d="M490 3982 c0 -52 23 -67 42 -27 6 14 17 25 25 25 7 0 13 5 13 10 0 6
-11 10 -25 10 -14 0 -25 -5 -25 -11 0 -8 -5 -8 -15 1 -12 10 -15 9 -15 -8z"/>
<path d="M580 3987 c0 -8 8 -38 19 -68 10 -31 22 -75 26 -100 10 -58 18 -70
26 -39 7 25 7 25 8 2 1 -14 6 -22 14 -19 6 2 11 14 10 26 -2 15 1 20 9 15 8
-5 9 -2 2 12 -5 10 -9 46 -9 78 0 38 -4 61 -12 63 -7 3 -13 13 -13 24 0 16 -7
19 -40 19 -27 0 -40 -4 -40 -13z"/>
<path d="M670 3990 c0 -5 7 -7 15 -4 8 4 15 8 15 10 0 2 -7 4 -15 4 -8 0 -15
-4 -15 -10z"/>
<path d="M707 3980 c-3 -13 1 -21 14 -25 22 -7 24 -18 8 -47 -16 -30 19 -148
44 -148 22 0 38 41 31 79 -5 22 0 34 18 50 12 12 24 28 24 34 1 7 2 17 3 24 0
7 8 10 16 7 16 -6 19 4 9 30 -9 23 -64 21 -64 -2 0 -10 -6 -27 -14 -38 -12
-15 -17 -16 -27 -7 -10 10 -10 18 -1 38 11 24 10 25 -22 25 -25 0 -35 -5 -39
-20z"/>
<path d="M1420 3943 c17 -32 46 -76 65 -98 l35 -40 -25 48 c-14 26 -25 57 -25
68 0 30 -38 79 -61 79 -17 0 -16 -5 11 -57z"/>
<path d="M1516 3988 c4 -7 22 -31 41 -54 18 -22 39 -56 47 -76 8 -19 22 -40
30 -48 9 -7 16 -17 16 -22 0 -14 79 -118 90 -118 16 0 12 18 -15 60 -14 22
-25 45 -25 50 0 6 -13 31 -30 55 -16 24 -31 52 -33 62 -2 10 -13 34 -25 53
-12 19 -22 38 -22 43 0 4 -18 7 -41 7 -29 0 -38 -3 -33 -12z"/>
<path d="M1722 3951 c27 -28 59 -56 71 -64 12 -8 37 -36 56 -63 31 -47 88 -94
111 -94 6 0 22 -7 35 -16 28 -18 32 -48 10 -70 -13 -13 -15 -13 -15 -1 0 8 -7
18 -16 21 -14 5 -15 4 -5 -7 7 -10 8 -23 3 -38 -7 -18 -4 -27 12 -42 l21 -18
-22 6 c-30 8 -29 -2 2 -27 34 -27 31 -37 -10 -33 l-35 3 23 -20 22 -19 -24 7
-24 6 26 -33 c14 -19 47 -56 72 -84 26 -27 54 -60 62 -72 8 -13 22 -23 29 -23
8 0 14 -5 14 -11 0 -6 7 -9 15 -5 8 3 15 1 15 -4 0 -5 24 -35 53 -67 28 -32
68 -78 87 -103 19 -25 40 -52 47 -60 54 -67 52 -66 63 -50 5 8 10 25 10 38 0
12 4 22 8 22 10 0 8 -42 -3 -60 -17 -28 -12 -49 14 -55 27 -7 51 14 51 44 0
21 -40 101 -51 101 -5 0 -9 6 -9 14 0 8 -5 16 -12 18 -7 3 -8 10 -4 17 6 10
13 8 30 -7 11 -11 31 -25 43 -31 12 -6 25 -20 28 -31 8 -24 21 -26 29 -4 7 19
-67 95 -122 124 -33 18 -36 23 -33 59 2 38 1 40 -51 67 -36 20 -54 36 -56 52
-2 15 -10 22 -25 22 -29 0 -94 44 -102 68 -3 11 -24 27 -46 37 -43 20 -72 62
-67 97 3 20 8 17 58 -25 64 -55 167 -127 181 -127 19 0 6 16 -43 55 -29 22
-68 56 -87 75 -33 33 -87 65 -102 62 -14 -3 -20 51 -8 59 15 9 57 -11 83 -40
11 -12 23 -21 27 -21 13 0 177 -109 227 -150 6 -6 12 -7 12 -3 0 4 21 -14 45
-42 25 -28 45 -43 45 -35 0 9 -13 30 -30 48 -31 34 -37 56 -20 67 14 9 -6 34
-35 45 -13 5 -26 3 -37 -8 -17 -14 -27 -9 -134 64 -64 43 -136 92 -160 108
-40 26 -60 66 -34 66 12 0 152 -69 160 -79 9 -12 128 -81 139 -81 19 0 12 26
-15 51 -26 24 -60 79 -49 79 3 0 28 -11 55 -25 60 -30 66 -31 73 -4 4 15 2 19
-9 15 -19 -7 -190 77 -224 110 -19 18 -22 26 -12 36 9 9 25 6 69 -14 48 -22
142 -62 201 -85 6 -3 12 2 12 11 0 10 -9 16 -23 16 -15 0 -26 9 -35 30 -12 25
-16 28 -32 18 -15 -10 -26 -8 -57 8 -21 12 -76 36 -123 54 -84 33 -130 63
-117 76 6 7 135 -32 192 -56 11 -5 39 -14 63 -20 24 -6 45 -16 48 -23 5 -15
67 -14 72 1 2 7 -2 13 -10 13 -25 2 -33 5 -83 28 -61 29 -59 26 -48 45 8 14
11 14 32 -1 22 -15 81 -27 81 -16 0 2 -25 15 -55 29 -52 22 -67 24 -232 24
-163 0 -175 -1 -162 -17 12 -15 12 -16 -6 -9 -11 4 -25 9 -32 10 -7 1 -16 5
-19 9 -4 4 -55 7 -114 7 l-107 0 49 -49z m328 -58 c0 -7 -9 -13 -20 -13 -11 0
-20 5 -20 10 0 6 -7 10 -15 10 -25 0 -85 44 -85 62 0 15 11 12 70 -20 38 -20
70 -43 70 -49z m-200 13 c0 -5 -9 -1 -20 9 -11 10 -20 25 -20 34 0 12 6 9 20
-9 11 -14 20 -29 20 -34z m158 -46 c2 -6 8 -8 12 -5 10 6 175 -78 204 -103 10
-9 21 -15 25 -12 3 3 7 -5 9 -18 6 -39 -24 -37 -96 7 -37 23 -76 47 -87 54
-11 6 -32 19 -47 29 -15 10 -35 18 -44 18 -17 0 -43 27 -44 44 0 11 64 -2 68
-14z m12 -80 c0 -31 -92 -6 -96 27 l-4 22 50 -21 c28 -11 50 -24 50 -28z m20
-197 c0 -19 -13 -9 -16 12 -1 8 2 13 7 9 5 -3 9 -12 9 -21z m246 -318 c44 -42
60 -65 55 -74 -6 -9 -19 0 -47 35 -22 26 -58 66 -81 87 -24 22 -43 44 -43 50
0 10 26 -11 116 -98z"/>
<path d="M2390 3996 c0 -2 7 -7 16 -10 8 -3 12 -2 9 4 -6 10 -25 14 -25 6z"/>
<path d="M2597 3988 c4 -7 6 -21 4 -31 -2 -17 -1 -17 18 2 12 12 27 21 35 21
8 0 18 5 21 10 4 6 -12 10 -40 10 -34 0 -44 -3 -38 -12z"/>
<path d="M2730 3991 c0 -6 4 -12 9 -15 7 -5 8 -24 2 -59 0 -5 -5 -6 -10 -2 -5
3 -13 -5 -17 -17 -3 -13 -20 -37 -37 -55 -25 -26 -37 -30 -65 -27 -19 3 -44
11 -55 19 -37 26 -37 16 -1 -21 22 -22 42 -33 51 -30 11 5 13 2 9 -10 -4 -12
-2 -15 9 -10 8 3 15 2 15 -2 0 -4 13 -15 29 -25 18 -10 31 -28 35 -47 6 -32
-13 -64 -96 -162 -38 -45 -59 -98 -38 -98 6 0 9 4 6 9 -7 11 111 134 123 127
5 -3 12 -22 15 -41 5 -24 12 -35 24 -35 25 0 42 20 42 47 0 39 28 15 35 -30 4
-23 13 -52 21 -64 11 -17 11 -29 3 -50 -10 -27 -11 -27 -25 -9 -8 11 -14 31
-15 45 0 14 -4 34 -8 44 -6 16 -9 16 -30 -7 -22 -24 -23 -29 -13 -65 14 -45
15 -91 3 -110 -6 -9 -12 3 -21 38 -6 28 -16 53 -20 56 -5 3 -25 -27 -45 -67
-22 -43 -32 -74 -26 -76 6 -2 11 -11 11 -20 0 -8 7 -24 16 -34 14 -14 14 -20
4 -33 -8 -9 -10 -27 -6 -47 14 -70 13 -108 -5 -108 -14 0 -18 -14 -24 -70 -4
-38 -10 -70 -14 -70 -4 0 -14 26 -21 58 -18 82 -19 83 -19 22 0 -75 -21 -222
-33 -237 -6 -7 -19 -13 -30 -13 -11 0 -16 -5 -13 -11 4 -6 13 -8 21 -5 7 3 16
1 19 -5 4 -5 11 -7 16 -4 5 4 9 -6 9 -22 0 -15 4 -43 9 -61 6 -18 6 -30 1 -27
-5 3 -16 -2 -24 -11 -9 -8 -16 -11 -16 -5 0 5 7 14 16 19 9 5 15 15 13 21 -3
8 -12 6 -28 -8 -13 -12 -28 -21 -33 -21 -5 0 -16 -7 -24 -15 -14 -13 -14 -16
0 -21 18 -7 22 -44 5 -44 -6 0 -9 7 -5 15 3 8 1 15 -4 15 -6 0 -10 -5 -10 -12
0 -9 -3 -9 -11 -1 -13 13 -30 85 -19 78 4 -3 10 2 13 10 4 10 1 12 -11 8 -16
-5 -16 -5 0 12 20 22 27 18 30 -16 2 -15 -2 -23 -9 -22 -7 2 -13 -7 -13 -19 0
-21 1 -21 28 5 15 15 33 27 40 27 7 0 12 5 12 10 0 6 8 10 17 10 14 0 15 2 4
13 -10 10 -15 8 -27 -7 -7 -11 -17 -16 -21 -13 -3 4 2 13 12 21 13 9 15 15 6
20 -12 8 -6 26 9 26 5 0 7 -6 4 -14 -3 -7 1 -16 9 -19 15 -6 16 4 2 36 -5 13
-11 15 -20 7 -10 -9 -16 -6 -25 10 -6 11 -8 25 -5 30 4 6 -5 6 -22 -1 -27 -10
-43 -25 -43 -43 0 -5 9 -1 19 8 19 18 47 14 36 -5 -4 -5 2 -9 12 -10 11 0 13
-3 5 -6 -9 -3 -10 -9 -2 -18 7 -9 6 -16 -4 -24 -10 -9 -13 -8 -13 6 0 37 -3
44 -15 37 -9 -5 -9 -2 1 9 8 10 9 17 3 17 -6 0 -14 -5 -17 -10 -4 -6 -22 -17
-41 -25 -22 -9 -33 -19 -28 -26 5 -8 9 -8 14 1 6 9 9 9 15 0 12 -20 -11 -33
-28 -16 -10 10 -18 12 -22 6 -3 -5 -1 -10 5 -10 6 0 8 -5 4 -11 -4 -8 -9 -7
-15 2 -8 12 -10 12 -18 0 -6 -9 -11 -10 -15 -2 -4 6 3 15 16 20 30 11 52 37
39 45 -5 4 -14 -2 -20 -11 -8 -15 -11 -11 -17 24 -4 28 -10 40 -18 35 -6 -3
-15 -7 -20 -7 -5 0 -12 -8 -15 -18 -8 -21 -21 -24 -31 -7 -9 14 -30 5 -30 -13
0 -8 3 -8 9 2 6 9 10 10 16 2 4 -7 1 -19 -6 -27 -10 -12 -9 -13 7 -8 15 4 13
1 -6 -16 -14 -12 -19 -19 -12 -15 7 4 21 -3 32 -17 11 -13 19 -18 20 -13 0 6
-5 16 -11 22 -8 8 -4 17 15 34 33 29 34 45 1 23 -23 -15 -25 -15 -25 0 0 9 3
15 8 15 19 -3 33 2 27 11 -3 6 -2 10 3 10 5 0 14 -11 20 -25 14 -30 15 -36 5
-33 -14 5 -55 -30 -45 -36 6 -3 12 -1 14 6 3 9 6 9 12 0 4 -7 2 -12 -3 -12 -6
0 -11 -8 -11 -17 0 -15 2 -15 9 -4 13 20 52 25 45 6 -4 -8 -1 -15 5 -15 6 0
11 7 11 15 0 8 3 15 8 16 4 0 15 2 25 4 26 5 20 -14 -9 -25 -14 -6 -22 -15
-18 -21 4 -8 9 -7 15 2 4 7 10 11 13 8 11 -10 -12 -31 -25 -23 -8 5 -18 9 -24
9 -44 3 -104 19 -99 26 3 5 -2 6 -11 2 -10 -3 -21 0 -26 8 -5 8 -9 9 -9 3 0
-6 -24 -12 -55 -13 -53 -2 -55 -1 -55 24 0 22 -2 24 -14 13 -8 -7 -13 -17 -13
-23 2 -9 -14 -9 -86 -1 -16 2 -34 -3 -42 -10 -11 -11 -14 -11 -18 0 -4 10 -20
12 -64 8 -32 -3 -77 -6 -100 -6 -22 -1 -39 -5 -35 -10 3 -5 -8 -6 -26 -3 -17
4 -34 2 -37 -3 -3 -6 -11 -10 -17 -10 -6 0 -9 3 -5 6 12 13 -20 32 -46 27 -22
-4 -25 -8 -17 -23 7 -13 6 -20 -6 -24 -10 -4 -13 -1 -9 7 4 6 -1 3 -9 -7 -9
-11 -16 -16 -16 -12 0 5 -6 3 -13 -3 -8 -6 -17 -8 -20 -5 -3 3 -19 -3 -35 -14
-16 -12 -33 -18 -38 -13 -23 19 -63 30 -70 19 -4 -7 -3 -8 4 -4 7 4 12 1 12
-8 0 -8 4 -18 10 -21 6 -4 7 1 3 11 -5 14 -3 15 15 5 27 -14 27 -17 2 -24 -11
-3 -27 2 -36 10 -13 14 -14 13 -8 -12 8 -31 -12 -51 -33 -33 -10 8 -13 6 -13
-6 0 -9 -4 -16 -10 -16 -5 0 -10 5 -10 10 0 6 -6 10 -12 10 -7 -1 -2 -10 12
-22 24 -21 24 -21 3 -15 -17 4 -23 1 -23 -11 0 -10 -9 -30 -20 -47 -19 -28
-20 -29 -20 -7 0 13 4 21 9 18 5 -3 12 11 15 32 12 65 15 70 39 65 22 -5 22
-5 2 11 -11 9 -15 15 -10 14 6 -2 10 2 10 7 0 6 -3 9 -7 8 -3 -1 -3 10 2 26 9
33 39 90 39 76 1 -5 -3 -17 -9 -25 -5 -9 -5 -19 1 -27 13 -15 2 -36 -14 -26
-8 5 -8 2 1 -9 7 -8 10 -22 6 -31 -7 -19 8 -28 26 -16 8 5 10 9 5 9 -12 0 -14
80 -2 80 4 0 7 5 7 11 0 5 -5 7 -11 3 -7 -4 -9 0 -5 13 4 13 -1 26 -14 38 -11
10 -20 25 -20 33 0 9 -3 12 -7 9 -8 -9 -32 24 -33 46 0 21 19 18 41 -5 19 -21
67 -40 73 -29 3 4 -15 29 -40 55 -25 27 -43 50 -40 53 3 3 19 -2 37 -11 18 -9
36 -16 41 -16 15 0 39 28 36 41 -2 6 3 14 10 16 17 6 15 -22 -3 -40 -8 -8 -11
-18 -8 -21 4 -4 12 4 19 16 11 20 13 21 19 6 4 -9 13 -14 21 -11 8 3 11 10 8
15 -4 6 2 8 11 6 10 -1 20 -9 23 -17 3 -8 0 -11 -5 -8 -5 3 -10 0 -10 -8 0
-12 4 -12 21 2 40 34 40 53 0 59 -13 2 -13 0 2 -18 18 -19 18 -19 -8 -8 -14 7
-24 18 -22 24 2 6 -9 20 -26 29 -17 10 -27 23 -24 29 4 6 10 5 15 -3 5 -8 9
-10 9 -5 0 6 6 3 13 -6 6 -9 25 -18 42 -21 28 -5 29 -4 10 10 -16 12 -16 14
-3 10 10 -3 20 -2 23 3 4 6 -1 10 -9 10 -9 0 -16 5 -16 10 0 13 27 13 35 0 4
-6 2 -17 -5 -25 -17 -21 8 -30 29 -11 10 9 21 13 24 9 10 -9 9 -25 -1 -19 -5
3 -9 -1 -9 -9 0 -20 47 -26 48 -6 0 12 2 13 6 2 3 -8 -2 -20 -12 -27 -9 -7
-14 -17 -10 -23 3 -6 2 -11 -4 -11 -5 0 -12 4 -15 9 -3 5 -14 11 -25 14 -15 3
-18 1 -14 -11 5 -11 3 -13 -8 -7 -8 4 -11 5 -7 0 4 -4 3 -16 -2 -25 -8 -14 -5
-19 15 -22 13 -3 28 -1 33 4 6 6 5 -11 -1 -37 -8 -35 -13 -42 -19 -30 -5 8
-13 13 -17 10 -5 -2 -11 5 -14 17 -4 16 -3 18 6 9 6 -6 16 -11 21 -11 12 1
-23 30 -35 30 -4 0 -9 -9 -12 -20 -3 -11 -9 -20 -14 -20 -15 0 -37 19 -30 26
3 4 13 1 22 -6 8 -7 15 -9 15 -5 0 4 -8 14 -17 22 -17 14 -17 14 2 8 16 -5 17
-4 8 6 -10 10 -18 10 -40 -1 -16 -8 -32 -16 -36 -18 -5 -3 -4 5 2 16 7 14 17
19 28 15 10 -4 14 -2 10 4 -4 6 -15 13 -26 16 -15 3 -18 1 -14 -11 5 -11 3
-13 -7 -7 -8 5 -11 4 -6 -3 10 -17 -12 -64 -26 -56 -8 5 -7 0 2 -11 14 -17 13
-17 -10 -11 l-25 8 23 -17 c12 -9 20 -21 16 -26 -4 -6 -14 -3 -25 7 -18 16
-19 16 -19 -4 0 -12 -1 -25 -2 -29 -2 -3 7 -7 20 -8 13 -1 22 4 22 13 0 11 3
12 13 3 8 -6 16 -10 18 -8 2 1 2 -1 -1 -5 -5 -6 -36 -15 -64 -17 -5 -1 -3 -8
4 -16 12 -14 15 -14 30 0 9 8 21 15 26 15 5 0 -2 -10 -16 -21 -24 -20 -24 -21
-3 -16 12 3 21 2 20 -2 -1 -3 3 -8 8 -11 6 -3 10 14 11 40 1 67 24 113 50 103
16 -6 19 -33 4 -33 -7 0 -7 -6 -2 -17 5 -10 7 -24 5 -30 -3 -8 3 -13 14 -12
10 0 13 3 6 5 -7 3 -9 12 -6 20 4 11 9 12 19 3 10 -8 14 -8 14 -1 0 6 -8 16
-17 21 -10 6 -13 11 -6 11 6 0 10 9 8 20 -2 12 0 18 6 15 5 -4 7 -10 4 -14 -2
-5 2 -17 10 -27 8 -10 15 -14 15 -8 0 5 -5 15 -11 21 -8 8 -8 13 0 17 6 4 11
3 11 -1 0 -5 7 -18 16 -29 8 -10 13 -13 9 -7 -7 14 20 7 43 -10 9 -7 11 -4 9
11 -2 12 -7 25 -12 29 -4 5 -5 3 -1 -4 4 -8 -1 -11 -14 -10 -25 2 -26 13 -2
26 16 10 15 10 -3 11 -20 1 -20 1 -1 15 11 8 14 15 8 15 -7 0 -12 5 -12 11 0
6 7 8 18 4 14 -5 15 -4 5 6 -17 17 -16 32 1 26 10 -4 12 0 8 15 -3 14 -1 19 6
14 8 -5 10 -1 5 10 -4 12 -3 15 5 10 8 -5 10 -1 5 10 -5 14 -3 16 11 11 10 -4
22 -7 27 -7 5 0 9 -7 9 -15 0 -9 -6 -12 -17 -8 -15 5 -14 3 2 -10 19 -14 19
-16 2 -34 -21 -24 -22 -43 -1 -43 14 0 14 3 4 15 -8 10 -9 15 -1 15 6 0 14 12
17 26 5 18 11 23 23 18 9 -3 22 -7 29 -7 6 0 12 -6 12 -14 0 -7 5 -13 11 -13
6 0 9 7 6 15 -9 22 10 28 23 8 10 -17 10 -16 8 2 -1 11 3 30 10 41 6 12 9 24
5 27 -3 3 -2 14 2 24 12 27 13 83 2 83 -6 0 -7 3 -4 7 4 3 2 12 -4 19 -6 8 -6
14 0 18 6 4 6 19 0 41 -6 19 -9 42 -7 51 2 9 -4 19 -12 21 -13 4 -13 3 0 -6
10 -7 11 -11 3 -11 -9 0 -10 -7 -3 -25 6 -16 6 -25 0 -25 -6 0 -10 7 -10 15 0
8 -8 15 -17 15 -16 0 -16 -2 -3 -11 13 -9 13 -10 0 -6 -8 2 -13 12 -12 22 3
16 1 17 -12 6 -13 -11 -17 -10 -25 10 -8 21 -16 12 -12 -13 0 -4 -6 -5 -14 -2
-8 4 -15 10 -15 15 0 5 -8 9 -17 9 -13 0 -14 -3 -6 -8 9 -6 7 -11 -7 -20 -11
-7 -20 -8 -20 -2 0 5 -7 7 -15 4 -8 -4 -12 -10 -9 -15 3 -5 2 -9 -3 -7 -14 3
-73 -37 -79 -54 -3 -10 -11 -15 -20 -11 -8 3 -15 -1 -16 -8 0 -8 -2 -18 -2
-24 -1 -5 -5 -16 -9 -22 -5 -8 -4 -13 2 -13 6 0 11 -7 11 -17 0 -15 -2 -15
-19 1 -12 11 -21 14 -26 7 -3 -6 0 -11 8 -11 8 0 18 -7 21 -16 10 -27 7 -28
-19 -4 -17 16 -22 27 -15 34 23 23 9 53 -24 47 -13 -3 -36 20 -36 35 0 17 32
18 48 2 19 -19 22 -5 12 55 -8 51 -39 110 -58 113 -4 0 -15 4 -24 8 -10 5 -25
6 -33 2 -9 -3 -15 0 -15 9 0 8 -3 14 -7 13 -21 -6 -53 26 -63 61 -6 23 -19 42
-33 48 -13 6 -28 26 -34 47 -13 42 -1 47 23 11 19 -30 36 -23 34 13 -4 62 1
102 15 116 12 12 13 17 3 23 -23 15 -36 49 -33 86 2 21 -1 37 -6 37 -5 0 -9 8
-9 18 -1 9 -7 28 -15 42 -14 27 -17 24 -29 -32 -4 -16 -10 -28 -15 -28 -13 0
-21 100 -12 141 10 43 -5 169 -23 187 -10 10 -16 -4 -29 -75 -21 -108 -21
-140 -2 -159 8 -9 15 -34 15 -57 0 -57 11 -72 39 -58 17 10 21 9 21 -4 0 -8 5
-15 10 -15 6 0 10 -4 10 -10 0 -13 -37 -13 -45 0 -4 6 -11 8 -16 5 -13 -9 -11
-49 4 -64 10 -10 8 -15 -7 -27 -17 -12 -18 -17 -7 -40 16 -36 11 -38 -27 -11
-37 26 -41 37 -10 29 18 -4 20 -2 14 14 -5 10 -14 42 -20 69 -11 48 -13 50
-46 50 -19 0 -38 -4 -42 -10 -5 -6 -12 -4 -18 5 -8 13 -10 13 -10 -2 0 -9 -8
-22 -17 -27 -16 -9 -16 -12 -3 -21 8 -5 31 -15 51 -20 35 -10 67 -35 57 -45
-3 -3 -21 2 -41 10 -69 28 -95 -17 -44 -74 l22 -24 -25 7 c-56 17 -70 18 -70
7 0 -8 -6 -9 -18 -2 -9 5 -30 7 -45 4 -15 -3 -33 -1 -40 5 -8 7 -18 7 -27 2
-18 -11 -30 -4 -30 20 0 10 -4 21 -9 24 -4 3 -6 -7 -3 -22 5 -24 4 -26 -12
-13 -15 12 -15 16 -1 35 32 45 66 121 62 137 -6 21 16 31 47 23 12 -3 33 -1
46 4 22 8 19 11 -35 22 -33 7 -70 13 -83 12 -13 -1 -31 2 -41 8 -12 6 -22 5
-28 -1 -7 -7 -17 -8 -29 -1 -11 5 -34 7 -51 5 -29 -5 -32 -8 -26 -31 4 -18 1
-29 -12 -39 -11 -7 -13 -13 -7 -13 7 0 12 -13 12 -30 0 -25 -3 -28 -19 -22
-23 9 -91 96 -91 118 0 21 -37 59 -58 59 -12 0 -20 13 -27 42 -6 23 -13 45
-18 49 -4 4 -7 31 -7 60 0 64 -12 99 -40 114 -25 13 -38 6 -23 -12 10 -13 22
-66 27 -120 2 -24 -1 -28 -22 -28 -21 0 -23 -3 -18 -26 6 -23 4 -25 -11 -19
-10 4 -37 7 -61 6 -35 -2 -42 1 -42 17 0 14 -15 26 -49 41 -27 11 -55 21 -61
21 -18 0 -7 -33 15 -45 45 -23 47 -26 31 -43 -13 -15 -12 -24 6 -77 11 -33 24
-61 29 -63 5 -2 9 -13 9 -24 0 -11 13 -36 30 -55 16 -18 30 -38 30 -43 0 -15
-21 -12 -41 6 -10 9 -35 22 -56 29 -42 15 -43 31 0 26 33 -3 36 18 7 44 -12
10 -19 24 -16 31 2 6 0 16 -5 21 -6 6 -18 25 -27 44 -10 21 -26 35 -40 37 -29
4 -29 -20 2 -61 36 -50 40 -66 7 -27 l-31 34 0 -91 c0 -68 4 -94 15 -103 19
-16 19 -34 0 -26 -13 4 -15 -8 -15 -82 0 -55 4 -92 12 -100 9 -9 9 -12 0 -12
-8 0 -12 -17 -12 -49 0 -42 4 -51 32 -72 17 -13 35 -23 40 -21 12 3 111 -101
128 -136 8 -15 22 -39 32 -53 10 -14 15 -29 11 -33 -3 -3 -1 -6 5 -6 7 0 12
-4 12 -10 0 -14 -19 -12 -34 3 -7 7 -26 32 -41 57 -28 45 -49 70 -58 70 -15 0
-17 -63 -3 -85 20 -30 21 -41 3 -23 -23 23 -39 59 -33 74 3 9 1 12 -4 9 -6 -3
-14 5 -20 20 -12 31 -51 85 -62 85 -4 0 -8 -16 -8 -35 0 -39 44 -135 85 -183
15 -18 24 -36 21 -41 -4 -5 -2 -12 4 -16 15 -9 13 -45 -3 -40 -11 5 -63 103
-60 115 1 3 -9 10 -23 17 -23 11 -24 10 -24 -27 0 -30 5 -40 21 -45 12 -4 18
-12 15 -21 -3 -7 -1 -16 4 -19 11 -7 10 -75 -1 -75 -16 0 -31 43 -27 76 2 19
1 34 -4 34 -4 0 -8 -632 -8 -1405 0 -905 3 -1405 10 -1405 5 0 14 9 20 20 14
26 30 26 37 0 7 -27 53 -28 53 -1 0 31 18 34 36 6 11 -17 25 -25 44 -25 23 0
27 4 24 26 -3 31 20 27 24 -4 2 -15 10 -22 25 -22 26 1 119 49 95 50 -24 0
-50 29 -43 49 3 12 0 18 -10 18 -10 0 -13 -6 -9 -19 4 -14 0 -18 -20 -18 -14
0 -28 5 -31 10 -3 6 -15 10 -27 10 -16 0 -18 -3 -9 -14 8 -9 8 -16 2 -20 -11
-7 -25 29 -17 43 3 4 17 6 31 3 31 -5 31 3 2 59 -13 24 -22 49 -20 56 2 6 -10
14 -27 18 -36 8 -60 42 -35 51 8 4 21 1 29 -5 7 -6 16 -8 19 -4 4 3 13 0 21
-6 21 -18 30 5 12 31 -9 12 -13 31 -10 45 5 17 2 23 -11 23 -12 0 -16 6 -12
20 3 11 -7 42 -21 70 -29 56 -23 87 17 83 12 -2 21 3 21 11 0 19 50 40 64 26
5 -5 20 -10 31 -10 12 0 32 -9 45 -20 13 -11 29 -20 37 -20 7 0 13 -5 13 -11
0 -6 6 -9 13 -7 12 5 15 18 20 88 l2 35 -45 0 c-37 0 -45 -3 -44 -17 1 -10 -2
-18 -7 -18 -5 0 -9 14 -9 30 0 25 -4 30 -24 30 -19 0 -23 4 -19 20 4 14 11 19
23 15 11 -3 20 1 24 10 7 20 -23 33 -34 14 -11 -17 -19 -10 -22 22 -2 16 2 24
12 24 8 0 14 -6 13 -12 -2 -9 10 -13 37 -13 38 0 40 2 40 30 0 23 5 30 19 30
11 0 23 -5 26 -10 4 -6 10 -8 14 -6 4 3 14 -6 21 -19 11 -20 11 -27 0 -40 -12
-14 -15 -14 -31 1 -16 14 -21 15 -34 4 -13 -11 -13 -15 -3 -21 10 -7 11 -9 0
-9 -10 0 -10 -5 -2 -20 18 -33 54 -25 76 17 11 21 25 38 32 37 7 -1 30 -2 52
-2 27 -2 40 -7 40 -16 0 -12 5 -12 30 -3 22 9 29 16 24 30 -7 22 21 67 41 67
8 0 15 4 15 10 0 20 38 31 64 18 38 -17 32 -28 -16 -29 -24 0 -36 -3 -28 -7 8
-4 15 -13 16 -19 1 -7 2 -19 3 -27 0 -7 10 -16 22 -19 15 -4 19 -11 15 -25 -4
-11 -1 -31 5 -46 17 -37 53 -34 90 9 17 19 40 37 52 41 12 3 29 12 37 20 20
17 57 8 63 -15 5 -21 -10 -64 -21 -58 -12 8 -38 -15 -56 -50 -14 -29 -22 -33
-55 -33 -38 0 -38 0 -34 -38 4 -48 22 -82 43 -82 20 0 50 -31 50 -51 0 -12 10
-15 38 -12 38 3 38 2 34 -29 -3 -20 -1 -29 6 -24 6 3 13 2 17 -4 4 -6 11 -7
17 -4 6 4 14 0 19 -7 12 -20 41 0 45 31 9 65 9 65 52 63 68 -1 70 -2 77 -23 6
-18 11 -17 85 22 44 23 96 59 117 82 l38 41 0 97 c0 53 2 95 5 93 3 -2 6 13 7
34 1 24 -1 30 -6 17 -6 -16 -9 -17 -13 -4 -9 23 5 38 30 31 12 -3 19 -9 16
-14 -3 -5 1 -9 9 -9 8 0 18 -7 21 -16 3 -9 11 -12 18 -8 8 5 7 0 -2 -11 -9
-11 -10 -16 -2 -11 7 4 15 0 19 -11 4 -10 21 -32 37 -50 17 -17 48 -50 70 -72
21 -23 50 -44 65 -47 14 -3 49 -13 77 -23 45 -15 54 -16 70 -4 14 11 36 13 89
8 82 -8 119 -22 160 -62 37 -35 104 -66 136 -61 15 2 40 25 69 63 25 32 71 84
102 115 31 30 71 82 88 115 17 33 28 49 24 36 -4 -17 -3 -21 6 -16 10 6 11 -8
6 -64 -4 -53 -3 -70 6 -65 8 5 10 -12 5 -64 -4 -46 -2 -72 4 -72 6 0 7 -5 4
-11 -10 -15 4 -79 17 -79 5 0 8 7 5 15 -4 8 -2 17 4 21 5 3 7 14 4 25 -7 23
12 26 39 6 16 -12 22 -10 42 10 13 13 33 23 44 23 12 0 32 12 46 27 l26 28 24
-30 c22 -27 28 -29 91 -29 49 1 71 -3 79 -14 9 -12 14 -10 31 12 12 14 19 35
16 45 -9 34 52 66 127 67 35 0 77 -4 93 -10 l28 -11 -31 -25 c-31 -26 -34 -60
-5 -60 8 0 16 -9 20 -19 3 -11 12 -22 21 -25 8 -3 24 -27 35 -52 20 -47 17
-72 -4 -44 -19 24 -41 22 -54 -6 -11 -24 -10 -26 18 -36 34 -12 34 -10 13 -49
-12 -24 -13 -34 -3 -45 6 -7 9 -23 6 -34 -3 -11 -1 -23 4 -26 5 -3 7 -9 4 -13
-6 -10 89 -51 117 -51 11 0 22 9 25 20 3 11 10 20 15 20 5 0 6 5 3 10 -3 6 -2
10 4 10 5 0 17 3 25 6 12 5 15 2 9 -12 -4 -12 -3 -15 5 -10 14 9 15 -3 3 -23
-6 -9 -6 -22 0 -33 8 -15 6 -18 -11 -18 -12 0 -18 4 -15 10 4 6 -1 7 -11 3
-15 -6 -14 -8 7 -16 13 -5 46 -20 72 -34 27 -14 51 -22 54 -20 5 6 -56 47 -69
47 -4 0 -6 13 -5 29 2 22 5 27 15 19 7 -6 16 -8 19 -4 4 4 1 11 -7 16 -16 10
-16 10 18 14 15 2 22 -3 22 -14 0 -23 41 -23 47 1 8 28 33 24 33 -6 0 -24 -8
-29 -46 -28 -8 0 -6 -13 5 -38 9 -23 23 -39 32 -39 20 0 52 46 45 65 -2 7 2
19 10 26 10 8 12 15 4 23 -16 16 -12 36 9 36 10 0 22 7 25 16 3 8 10 12 16 9
6 -3 7 1 4 9 -7 19 -9 19 -34 4 -15 -10 -22 -10 -32 0 -9 9 -6 12 18 14 16 0
35 1 42 1 7 -1 26 12 44 29 29 27 32 28 47 12 15 -15 15 -16 -2 -11 -10 4 -15
3 -12 -2 3 -5 1 -12 -4 -16 -6 -3 -7 -13 -4 -21 5 -13 1 -15 -15 -9 -13 3 -22
2 -22 -4 0 -16 19 -23 46 -17 21 6 24 9 13 22 -6 8 -9 17 -6 20 6 7 47 -18 47
-28 0 -5 7 -8 15 -8 12 0 15 18 15 104 0 95 -9 132 -24 107 -3 -5 -14 -7 -24
-4 -12 3 -22 -4 -30 -21 -9 -20 -9 -26 1 -26 6 0 4 -5 -5 -11 -10 -5 -18 -15
-18 -21 0 -20 -33 -36 -56 -28 -16 7 -27 4 -40 -11 -9 -10 -23 -19 -31 -19 -8
0 -12 -4 -8 -9 5 -9 -33 -28 -39 -19 -1 1 -10 16 -19 31 -10 15 -22 25 -27 22
-6 -4 -10 -2 -10 4 0 6 -7 8 -15 5 -8 -4 -22 -1 -30 6 -12 10 -15 9 -16 -6 0
-11 -1 -34 -2 -53 -1 -22 3 -35 13 -39 29 -11 40 -42 15 -42 -8 0 -15 5 -15
11 0 7 -10 22 -22 34 -67 65 -113 132 -77 109 13 -7 10 12 -9 74 -9 27 -8 32
5 32 9 0 21 -7 27 -15 10 -14 17 -13 59 10 70 37 80 34 72 -18 -4 -23 -4 -39
0 -35 5 4 14 3 20 -2 21 -17 47 0 41 25 -5 19 -2 22 17 18 32 -5 72 19 70 42
-1 11 2 22 7 25 4 3 2 22 -5 43 -8 23 -9 39 -3 43 5 3 7 12 4 19 -6 17 32 27
56 14 21 -11 15 -31 -6 -23 -21 8 -27 -10 -15 -45 11 -32 18 -35 67 -25 24 5
29 10 25 28 -3 15 -2 17 5 8 7 -11 11 -8 17 10 l7 23 8 -25 8 -25 1 25 c0 14
-6 34 -14 44 -14 18 -20 15 -16 -7 1 -5 -3 -6 -8 -3 -13 9 -19 88 -8 114 12
27 23 28 36 4 7 -11 10 290 11 956 0 672 -3 971 -10 967 -6 -4 -8 -14 -6 -23
3 -10 2 -21 -2 -27 -12 -17 -50 -35 -73 -35 -12 0 -23 -8 -26 -18 -3 -14 -11
-18 -29 -14 -13 2 -27 9 -30 14 -4 6 2 8 15 3 26 -8 27 6 2 30 -19 17 -21 16
-39 -14 -17 -27 -21 -30 -32 -16 -7 9 -8 15 -2 15 17 0 25 58 10 73 -26 26
-47 27 -60 4 -7 -12 -11 -28 -10 -35 2 -7 -6 -24 -17 -38 -12 -15 -18 -30 -15
-35 3 -5 1 -9 -4 -9 -6 0 -13 16 -16 35 -4 21 -11 33 -18 29 -5 -4 -14 -1 -18
6 -5 8 -7 1 -6 -16 1 -16 5 -35 9 -42 12 -18 -1 -49 -22 -55 -15 -4 -18 -15
-18 -70 0 -37 3 -64 8 -61 5 3 9 -3 9 -12 0 -16 2 -16 20 1 12 10 19 24 17 29
-2 6 -1 20 4 31 7 19 8 18 8 -4 1 -17 5 -21 17 -17 10 4 13 2 8 -6 -4 -6 0
-16 8 -22 18 -13 28 -55 13 -55 -5 0 -12 -8 -16 -18 -5 -14 -8 -11 -13 15 -7
27 -11 32 -28 26 -39 -12 -79 -10 -87 4 -4 7 -12 13 -17 13 -5 -1 -10 22 -11
51 -2 29 -7 56 -13 62 -13 13 -13 46 0 46 16 0 12 40 -5 46 -8 4 -15 12 -15
19 0 6 -9 20 -20 30 -17 15 -20 16 -25 3 -3 -8 -5 -19 -3 -24 1 -5 -3 -19 -10
-31 -6 -12 -9 -29 -6 -38 4 -9 -1 -24 -11 -35 -10 -11 -13 -20 -7 -20 7 0 8
-10 2 -29 -4 -16 -6 -32 -3 -35 6 -6 -29 -66 -39 -66 -13 0 -9 25 7 46 16 22
20 64 5 64 -5 0 -10 -5 -10 -11 0 -5 -4 -7 -10 -4 -5 3 -10 2 -10 -4 0 -5 5
-13 10 -16 6 -4 2 -18 -11 -36 -20 -28 -22 -29 -35 -12 -12 16 -15 16 -24 3
-9 -13 -10 -13 -11 0 0 10 -3 9 -8 -4 -10 -26 -62 -31 -68 -7 -3 13 -11 17
-24 14 -26 -7 -28 -81 -1 -90 26 -9 62 -45 62 -61 0 -12 3 -12 15 -2 12 10 15
10 15 -3 0 -8 7 -18 16 -21 16 -6 16 -8 0 -24 -9 -10 -16 -24 -16 -32 0 -10
-3 -10 -14 0 -8 6 -12 19 -9 28 6 15 4 15 -10 4 -11 -9 -21 -11 -33 -4 -11 6
-13 11 -5 16 6 4 11 2 11 -3 0 -6 5 -11 10 -11 13 0 13 37 0 45 -6 4 -8 10 -6
14 3 4 -1 8 -8 8 -9 0 -12 -7 -8 -16 5 -14 3 -14 -11 -2 -9 7 -17 22 -17 32 0
11 -6 19 -14 19 -8 0 -21 6 -28 14 -29 28 -53 28 -71 -3 -21 -36 -21 -45 -2
-37 8 3 15 0 15 -6 0 -6 3 -9 6 -5 9 8 34 -18 34 -36 0 -8 -7 -17 -15 -21 -8
-3 -15 0 -15 6 0 6 -3 9 -6 6 -3 -3 -20 8 -37 26 -18 17 -40 38 -50 45 -15 12
-17 11 -14 -5 4 -31 16 -44 35 -38 14 5 15 4 2 -5 -13 -9 -9 -15 11 -13 3 0 5
-10 5 -23 0 -23 -1 -23 -18 -8 -10 8 -15 20 -12 24 3 5 -2 9 -10 9 -9 0 -16 4
-16 9 0 7 -29 23 -111 61 -18 9 -131 34 -141 32 -4 -1 -6 7 -5 18 1 18 3 18
18 4 10 -9 23 -13 30 -8 9 5 7 10 -7 15 -18 7 -18 8 0 8 10 1 27 -11 38 -25
15 -18 28 -24 44 -21 13 2 21 0 18 -4 -3 -5 0 -9 5 -9 16 0 13 27 -4 33 -8 4
-21 21 -28 39 -8 18 -31 53 -51 76 -38 47 -45 65 -21 56 11 -5 14 -2 9 12 -4
11 -11 24 -15 29 -4 6 -4 17 1 25 6 8 10 25 10 38 0 18 -4 22 -25 18 -17 -3
-25 0 -25 10 0 8 -7 28 -15 44 -21 41 -24 71 -10 105 7 19 9 39 4 53 -6 17 -5
24 7 29 25 9 35 -10 38 -78 2 -36 10 -78 19 -94 15 -28 16 -29 17 -7 0 15 7
26 20 29 24 6 24 8 4 32 -11 13 -17 41 -19 87 -1 38 -5 81 -9 97 -7 21 -5 27
8 27 12 0 16 10 16 40 0 34 3 40 21 40 16 0 19 4 14 20 -3 11 -7 49 -8 84 -2
55 2 68 21 89 13 13 27 39 33 58 5 19 24 50 41 69 17 19 28 29 24 22 -4 -7 0
-15 9 -18 20 -8 24 -4 40 43 8 21 19 37 24 35 6 -1 11 5 11 12 0 8 12 28 26
43 15 15 33 38 41 50 8 12 21 19 29 16 10 -4 14 3 14 24 0 16 8 36 18 45 9 9
23 24 31 33 13 16 15 16 23 1 5 -8 12 -57 16 -108 4 -53 11 -92 17 -91 10 2
16 52 29 233 7 84 10 98 34 123 14 15 29 27 34 27 11 0 10 -63 -2 -95 -9 -23
-7 -30 12 -45 21 -17 24 -18 35 -3 7 9 9 22 4 32 -5 9 -12 39 -16 66 -20 141
-38 176 -66 123 -17 -34 -92 -131 -111 -146 -10 -7 -18 -22 -18 -33 0 -11 -4
-18 -9 -15 -4 3 -23 -16 -42 -42 -18 -26 -39 -53 -46 -60 -7 -7 -13 -24 -13
-37 0 -13 -4 -27 -10 -30 -5 -3 -10 -1 -10 4 0 6 -4 11 -10 11 -5 0 -10 -5
-10 -11 0 -12 -59 -101 -73 -110 -5 -4 -6 -12 -2 -18 4 -7 -11 -30 -37 -55
-42 -42 -83 -90 -113 -131 -13 -18 -14 -18 -15 -2 0 10 24 51 53 91 73 101 82
117 67 126 -9 5 1 20 30 49 23 22 46 41 51 41 4 0 19 16 32 35 23 33 23 38 11
86 -15 59 -9 94 11 56 6 -13 15 -36 19 -51 l7 -27 33 44 c19 25 40 55 46 68 7
12 21 32 32 43 15 17 18 30 13 81 -4 33 -8 70 -11 83 -6 32 14 27 23 -5 10
-39 10 -40 12 -68 1 -34 12 -31 40 13 14 20 35 48 48 62 21 24 22 29 10 70
l-13 45 -92 3 -92 3 6 -33 c4 -18 12 -46 20 -63 26 -60 24 -189 -3 -162 -2 3
-11 52 -19 109 -19 143 -22 148 -83 148 -39 0 -56 -5 -75 -24 -30 -27 -34 -56
-9 -56 9 0 26 8 37 19 34 30 76 54 76 43 0 -6 -25 -38 -56 -71 -36 -39 -54
-66 -50 -76 5 -13 1 -12 -18 2 -19 14 -23 25 -19 49 7 41 -12 52 -41 25 -28
-26 -36 -26 -36 -2 0 12 9 23 22 27 32 10 49 35 36 51 -15 18 -86 16 -105 -2
-17 -17 -40 -14 -35 4 1 6 -5 11 -13 11 -8 0 -15 -4 -15 -9z m127 -18 c4 -11
-54 -39 -63 -30 -8 7 38 48 50 44 5 -2 11 -8 13 -14z m-93 -58 c-4 -8 -8 -15
-10 -15 -2 0 -4 7 -4 15 0 8 4 15 10 15 5 0 7 -7 4 -15z m39 -53 c-2 -16 2
-20 18 -17 18 4 20 1 15 -20 -7 -29 1 -31 31 -10 14 10 24 12 28 5 3 -5 1 -10
-5 -10 -6 0 -8 -5 -4 -12 4 -7 3 -8 -5 -4 -6 4 -14 0 -17 -8 -3 -9 -17 -16
-30 -16 -23 0 -24 -2 -19 -57 3 -37 2 -49 -3 -33 -7 20 -14 24 -35 22 -19 -2
-27 2 -27 13 0 8 -5 15 -11 15 -7 0 -9 10 -5 25 7 28 -5 33 -24 11 -14 -18
-40 -10 -40 13 0 22 49 73 65 67 7 -2 21 6 31 20 22 28 40 26 37 -4z m179 -97
c-2 -14 0 -31 6 -38 5 -6 12 -28 16 -47 3 -19 3 -28 -1 -20 -3 8 -12 18 -19
23 -7 4 -15 21 -19 37 -4 17 -11 30 -16 30 -5 0 -2 11 7 25 20 30 33 25 26
-10z m-188 -139 c-6 -16 -24 -23 -24 -8 0 10 22 33 27 28 2 -2 1 -11 -3 -20z
m-2126 -43 c-4 -19 -38 -27 -38 -8 0 8 8 16 18 18 9 3 18 5 20 6 2 0 2 -6 0
-16z m80 -35 c-4 -28 -21 -33 -42 -13 -24 24 -20 53 7 57 26 4 40 -13 35 -44z
m2259 31 c2 -17 -1 -18 -13 -8 -13 11 -10 20 11 29 1 0 1 -9 2 -21z m-141 -14
c4 -14 3 -29 0 -33 -9 -8 -26 18 -26 41 0 26 19 20 26 -8z m-2236 -75 c0 -5
-7 -10 -16 -10 -8 0 -12 5 -9 10 3 6 10 10 16 10 5 0 9 -4 9 -10z m-40 -45 c0
-8 -4 -15 -10 -15 -5 0 -7 7 -4 15 4 8 8 15 10 15 2 0 4 -7 4 -15z m60 -26 c0
-6 -4 -7 -10 -4 -5 3 -10 11 -10 16 0 6 5 7 10 4 6 -3 10 -11 10 -16z m-432
-31 c23 -18 42 -37 42 -43 0 -26 -15 -22 -53 15 -22 22 -44 40 -49 40 -4 0 -8
5 -8 10 0 19 26 10 68 -22z m-98 -54 c7 -7 21 -14 32 -14 10 0 16 -4 13 -10
-3 -5 0 -7 9 -4 17 6 77 -69 75 -95 0 -10 -2 -12 -6 -3 -2 6 -16 12 -29 12
-16 0 -44 21 -90 68 -36 37 -69 75 -75 84 -8 15 -5 15 25 -3 19 -11 40 -27 46
-35z m681 -14 c10 -6 19 -15 19 -19 0 -13 -53 3 -58 17 -5 15 13 15 39 2z
m333 -15 c-4 -8 -8 -15 -10 -15 -2 0 -4 7 -4 15 0 8 4 15 10 15 5 0 7 -7 4
-15z m-789 -5 c3 -5 -1 -10 -9 -10 -9 0 -16 5 -16 10 0 6 4 10 9 10 6 0 13 -4
16 -10z m745 -28 c16 -10 20 -10 21 0 1 7 4 2 8 -11 8 -28 129 -167 154 -176
13 -5 17 -17 16 -53 -1 -43 -1 -45 -11 -19 -5 15 -16 27 -24 27 -7 0 -22 12
-31 27 -10 15 -28 38 -40 52 -13 13 -23 30 -23 37 0 7 -6 17 -13 21 -7 4 -19
23 -26 41 -8 17 -19 32 -27 32 -15 0 -35 31 -33 52 1 8 3 8 5 -2 3 -9 13 -21
24 -28z m1614 -38 c-18 -38 -34 -31 -34 17 0 35 18 52 37 34 12 -13 12 -20 -3
-51z m110 39 c4 -10 4 -14 0 -10 -4 4 -18 -11 -31 -33 -22 -36 -43 -46 -43
-20 0 9 58 80 65 80 2 0 6 -8 9 -17z m-2706 -48 c43 -26 145 -175 130 -191
-16 -15 -178 188 -178 221 0 6 3 6 8 -1 4 -6 22 -19 40 -29z m637 -18 c36 -42
43 -57 25 -57 -6 0 -15 11 -21 24 -6 13 -21 29 -33 36 -12 6 -27 19 -33 30
-22 35 25 10 62 -33z m-251 -15 c7 -12 10 -12 17 -1 6 10 9 11 9 2 0 -7 8 -13
17 -13 19 0 133 -71 133 -83 0 -4 9 -17 20 -29 11 -12 20 -27 20 -32 0 -8 -3
-8 -8 -1 -15 21 -68 50 -92 50 -20 0 -24 4 -22 22 2 16 -5 26 -30 39 -18 9
-36 22 -40 28 -5 6 -8 0 -9 -14 -1 -17 -3 -19 -6 -7 -3 10 -14 17 -28 17 -27
0 -38 12 -29 33 7 18 34 11 48 -11z m156 -18 c0 -16 -26 -19 -35 -4 -3 6 -4
14 0 20 8 13 35 1 35 -16z m-250 -54 c0 -5 -7 -7 -15 -4 -8 4 -15 8 -15 10 0
2 7 4 15 4 8 0 15 -4 15 -10z m149 -102 c7 -11 10 -22 7 -25 -6 -7 -56 43 -56
57 0 14 34 -8 49 -32z m-77 -42 c10 -12 15 -28 12 -38 -3 -9 18 -60 46 -114
28 -53 48 -99 45 -102 -6 -7 -2 -12 -54 76 -24 39 -48 72 -53 72 -5 0 -6 5 -3
10 3 6 3 10 -2 10 -4 0 -14 14 -22 31 -8 17 -27 46 -42 64 -18 21 -27 39 -23
49 6 14 11 13 43 -10 20 -15 44 -37 53 -48z m676 52 c19 -25 24 -58 8 -58 -8
0 -18 9 -21 20 -3 11 -10 20 -15 20 -4 0 -10 7 -14 15 -7 19 27 21 42 3z
m1632 -14 c0 -8 -4 -14 -10 -14 -5 0 -10 9 -10 21 0 11 5 17 10 14 6 -3 10
-13 10 -21z m-1423 -39 c0 -18 -19 -15 -25 3 -2 7 3 12 11 12 7 0 14 -7 14
-15z m266 0 c-3 -9 -8 -14 -10 -11 -3 3 -2 9 2 15 9 16 15 13 8 -4z m-1308
-15 c10 -11 13 -20 7 -20 -6 0 -16 9 -22 20 -6 11 -9 20 -7 20 2 0 12 -9 22
-20z m561 -26 c62 -65 75 -120 18 -75 -14 11 -30 18 -35 15 -5 -3 -13 6 -19
20 -5 14 -14 26 -19 26 -12 0 -24 37 -16 50 11 18 28 10 71 -36z m952 21 c-3
-3 -9 2 -12 12 -6 14 -5 15 5 6 7 -7 10 -15 7 -18z m-560 3 c16 -16 15 -28 -2
-28 -7 0 -16 9 -19 20 -6 23 3 26 21 8z m517 -18 c2 -12 1 -20 -2 -16 -4 4 -8
16 -10 28 -4 28 6 18 12 -12z m-716 -74 c0 -7 -2 -6 -6 2 -2 6 -9 10 -13 7 -9
-5 -60 61 -60 77 0 5 18 -11 40 -33 22 -23 40 -46 39 -53z m596 52 c-3 -31 4
-41 19 -29 13 11 56 4 56 -10 0 -12 -17 -11 -25 1 -10 16 -23 12 -35 -11 -14
-25 -9 -31 25 -34 31 -4 32 3 3 14 -18 6 -19 9 -5 14 24 9 51 -21 36 -40 -7
-7 -17 -12 -24 -9 -6 2 -12 -2 -12 -9 0 -7 6 -11 14 -8 7 3 13 -2 13 -12 0 -9
4 -14 9 -10 5 3 12 1 16 -5 9 -14 -7 -12 -42 5 -24 12 -30 20 -25 37 3 13 1
19 -5 15 -6 -4 -18 2 -28 13 -16 18 -16 20 -2 20 19 0 23 15 7 25 -5 3 -10 1
-10 -6 0 -7 -3 -9 -6 -6 -4 4 -2 13 5 21 9 11 9 15 -1 20 -11 5 -11 7 0 12 10
5 10 9 0 22 -11 15 -11 15 3 5 9 -7 15 -23 14 -35z m185 -6 c0 -9 -44 25 -48
37 -2 7 7 3 22 -10 14 -12 26 -25 26 -27z m-1168 -22 c4 0 8 -5 8 -12 0 -6 11
-26 26 -45 14 -18 21 -33 15 -33 -5 0 -13 5 -16 10 -8 13 -65 9 -65 -4 0 -26
-19 15 -29 62 -17 83 -15 88 21 53 17 -17 35 -31 40 -31z m1034 48 c5 4 6 3 2
-2 -4 -5 0 -15 10 -23 15 -13 15 -13 -4 -4 -11 5 -27 18 -35 28 -12 16 -12 17
2 6 9 -7 20 -9 25 -5z m-151 -38 c3 -5 2 -10 -4 -10 -6 0 -8 -7 -5 -15 4 -8
10 -12 15 -9 5 3 9 0 9 -5 0 -6 9 -11 20 -11 14 0 18 5 13 18 -4 13 -3 14 6 6
15 -14 6 -36 -21 -53 -18 -11 -20 -11 -15 3 4 9 -1 20 -11 26 -37 21 -42 27
-36 43 7 19 20 22 29 7z m55 0 c0 -5 -2 -10 -4 -10 -3 0 -8 5 -11 10 -3 6 -1
10 4 10 6 0 11 -4 11 -10z m167 -5 c0 -8 -4 -12 -9 -9 -4 3 -8 -2 -8 -11 0 -9
5 -13 10 -10 6 3 10 -1 10 -9 0 -10 -6 -13 -17 -9 -15 6 -16 5 -3 -9 17 -18
28 -14 41 16 9 21 10 21 5 -1 -5 -29 2 -30 13 -1 l8 22 13 -23 c7 -15 8 -21 1
-17 -10 6 -16 -20 -12 -46 0 -5 -3 -8 -9 -8 -5 0 -7 -7 -4 -15 4 -8 1 -15 -5
-15 -6 0 -11 7 -11 16 0 8 -7 22 -15 30 -13 14 -15 14 -15 0 0 -9 5 -16 10
-16 6 0 10 -5 10 -10 0 -12 -22 -2 -55 25 -19 15 -19 16 5 4 21 -10 23 -10 14
2 -14 19 -11 74 5 93 16 20 18 20 18 1z m54 1 c5 3 9 0 9 -6 0 -15 -23 -7 -26
8 -1 7 0 8 3 2 2 -5 9 -8 14 -4z m-431 -30 c0 -7 -3 -16 -6 -19 -9 -9 -65 33
-59 43 8 12 65 -9 65 -24z m1256 -44 c-15 -15 -16 -14 -16 9 0 14 6 31 13 38
10 10 13 8 15 -10 2 -12 -3 -29 -12 -37z m-2219 -34 c17 -18 35 -46 39 -63 7
-29 7 -30 -13 -12 -34 30 -43 22 -36 -35 3 -29 10 -54 15 -56 4 -2 8 -11 8
-20 0 -9 7 -29 14 -44 10 -19 11 -30 4 -34 -7 -4 -8 -29 -4 -68 3 -33 2 -67
-3 -74 -16 -26 -29 12 -39 111 -8 79 -14 103 -31 120 l-21 21 0 -49 c0 -46 12
-114 39 -220 13 -50 13 -58 2 -50 -9 5 -2 -27 14 -67 4 -10 3 -18 -2 -18 -19
0 -52 47 -88 125 -36 78 -38 79 -47 52 -7 -20 -6 -32 2 -42 7 -8 13 -37 15
-65 1 -29 9 -58 19 -69 18 -20 21 -41 5 -41 -16 0 -48 42 -49 65 0 11 -6 29
-13 40 -23 38 -32 25 -29 -46 2 -54 0 -68 -11 -64 -7 3 -14 15 -14 27 -2 27
-23 49 -30 31 -7 -19 -28 6 -37 42 -14 62 -25 85 -42 85 -19 0 -19 -86 0 -97
11 -6 12 -19 6 -58 -5 -27 -13 -61 -19 -75 l-10 -25 -1 25 c-1 14 -3 50 -4 80
-3 77 -26 218 -42 260 -26 70 -38 167 -20 177 12 8 56 -46 56 -69 0 -10 6 -18
13 -18 32 0 46 -35 50 -126 3 -61 10 -99 21 -116 9 -13 13 -28 9 -31 -3 -4 5
-7 19 -7 24 0 24 2 17 48 -3 26 -10 62 -14 80 -11 49 12 40 36 -14 11 -25 18
-52 15 -60 -3 -9 1 -14 14 -14 16 0 20 7 20 36 0 20 -7 62 -15 93 -14 56 -18
141 -6 141 6 -1 30 -50 84 -168 36 -78 41 -41 11 75 -37 149 -61 304 -41 272
1 -2 17 -23 35 -46 17 -23 32 -46 32 -51 0 -6 7 -13 16 -16 13 -5 14 1 8 42
-3 26 -10 55 -15 64 -5 9 -9 28 -9 43 0 21 3 24 18 16 9 -5 31 -24 49 -43z
m1227 10 c-3 -5 -12 -4 -20 3 -12 10 -14 10 -12 -1 2 -7 -2 -14 -9 -17 -9 -3
-9 3 0 26 10 28 12 29 29 14 10 -8 15 -20 12 -25z m-706 16 c12 -8 26 -23 32
-34 16 -30 -27 -13 -51 21 -23 32 -15 37 19 13z m512 -35 c0 -6 -4 -8 -9 -5
-5 4 -7 -3 -4 -14 3 -11 3 -20 0 -20 -9 0 -35 58 -30 64 8 8 43 -13 43 -25z
m-196 2 c11 -13 14 -21 7 -26 -12 -7 -34 12 -38 33 -4 18 12 15 31 -7z m1350
-16 c-4 -8 -1 -22 5 -29 8 -10 9 -16 1 -21 -5 -3 -10 -21 -10 -38 0 -18 -4
-38 -9 -46 -14 -22 -31 69 -17 94 10 20 12 26 15 45 0 6 5 10 11 10 5 0 7 -7
4 -15z m-1944 -20 c5 -14 13 -25 18 -25 4 0 9 -18 11 -41 3 -65 -38 -18 -52
59 -8 38 9 44 23 7z m1099 1 c10 -12 9 -14 -6 -11 -10 2 -22 4 -28 4 -5 1 -3
6 5 11 19 12 15 12 29 -4z m-171 -34 c2 -7 -4 -12 -13 -12 -9 0 -13 -4 -10
-10 3 -5 0 -7 -9 -4 -12 5 -13 9 -3 25 13 20 28 21 35 1z m-1422 -7 c9 -8 11
-15 6 -15 -5 0 -15 7 -22 15 -7 8 -9 15 -6 15 4 0 14 -7 22 -15z m655 -2 c12
-14 21 -63 12 -63 -5 0 -43 64 -43 73 0 13 17 8 31 -10z m-702 -26 c22 -36 40
-104 33 -126 -5 -16 -61 94 -62 122 0 9 -4 17 -10 17 -5 0 -10 5 -10 10 0 22
30 8 49 -23z m521 -62 c22 -48 29 -83 15 -87 -9 -3 -54 80 -70 130 -6 22 -5
22 14 10 12 -7 30 -31 41 -53z m-130 45 c0 -5 -2 -10 -4 -10 -3 0 -8 5 -11 10
-3 6 -1 10 4 10 6 0 11 -4 11 -10z m711 -44 c39 -26 57 -71 32 -80 -15 -6 -63
36 -63 55 0 7 -3 9 -7 6 -8 -8 -43 42 -43 62 0 11 5 10 23 -3 12 -9 38 -27 58
-40z m219 17 c0 -17 -23 -42 -33 -36 -7 4 -7 0 2 -10 11 -15 11 -17 -2 -17
-18 0 -16 52 2 58 6 2 9 8 6 13 -4 5 1 6 9 3 9 -3 16 -8 16 -11z m990 -7 c0
-2 -7 -7 -16 -10 -8 -3 -12 -2 -9 4 6 10 25 14 25 6z m-1839 -66 c24 -21 34
-60 16 -60 -8 0 -20 7 -27 15 -7 9 -20 13 -28 10 -10 -3 -12 0 -8 10 3 8 2 25
-3 38 -13 35 -2 52 17 25 9 -13 24 -30 33 -38z m774 10 c3 -5 1 -10 -4 -10 -6
0 -11 5 -11 10 0 6 2 10 4 10 3 0 8 -4 11 -10z m235 -30 c0 -4 -7 -11 -16 -14
-8 -3 -12 -2 -9 4 3 6 0 10 -7 10 -10 0 -9 3 2 9 15 10 30 6 30 -9z m919 -32
c1 6 6 12 12 12 18 0 -8 -27 -31 -33 -16 -4 -18 -2 -10 13 7 13 6 20 -2 22 -7
3 -8 10 -3 17 6 10 11 6 21 -15 7 -16 13 -23 13 -16z m-333 9 c4 -4 0 -7 -9
-7 -9 0 -18 4 -21 9 -7 10 20 9 30 -2z m218 -2 c3 -9 0 -15 -9 -15 -8 0 -15 7
-15 15 0 8 4 15 9 15 5 0 11 -7 15 -15z m-1896 -35 c7 0 12 -6 12 -14 0 -28
42 -107 66 -122 19 -13 22 -19 12 -31 -10 -12 -14 -12 -29 4 -24 24 -89 132
-89 148 0 7 -7 18 -15 25 -8 7 -15 17 -15 23 0 6 10 1 23 -11 13 -12 29 -22
35 -22z m2057 11 c-3 -6 -11 -11 -16 -11 -5 0 -4 6 3 14 14 16 24 13 13 -3z
m20 -27 c-10 -7 -23 -10 -29 -7 -6 4 -5 -1 3 -11 11 -13 16 -14 23 -4 5 8 6 3
3 -13 -5 -19 -2 -28 9 -32 11 -4 16 -1 17 11 0 14 2 14 8 -3 5 -11 6 -24 4
-28 -3 -5 3 -17 13 -28 9 -10 15 -21 12 -24 -3 -3 -13 7 -23 22 -19 29 -65 76
-65 66 0 -3 -7 0 -15 7 -8 7 -13 15 -11 19 3 4 -5 8 -16 8 -28 2 -34 11 -19
26 9 9 14 9 19 0 10 -16 50 -12 57 5 3 7 10 10 16 6 9 -5 7 -11 -6 -20z m-733
9 c-6 -2 -9 -10 -6 -15 4 -7 2 -8 -5 -4 -13 9 -5 26 12 25 9 0 8 -2 -1 -6z
m1943 -16 c0 -26 15 -32 16 -6 1 13 5 2 11 -24 6 -35 5 -53 -3 -63 -10 -12 -8
-13 7 -8 17 6 16 4 -3 -17 -18 -20 -21 -32 -17 -61 4 -24 11 -35 19 -31 10 3
12 -2 8 -16 -3 -12 -9 -21 -14 -21 -5 0 -9 -6 -9 -14 0 -7 -7 -19 -15 -26 -12
-10 -18 -10 -31 1 -15 12 -14 14 7 20 24 7 24 7 2 8 -18 1 -22 6 -21 25 1 14
6 24 11 23 5 -1 15 17 22 41 7 23 11 42 9 42 -12 0 -18 -7 -19 -22 -1 -10 -4
-20 -7 -23 -4 -5 -4 54 1 77 0 4 13 14 29 22 23 12 25 15 10 21 -10 4 -24 5
-32 2 -8 -3 -22 0 -33 8 -17 13 -17 14 6 39 26 28 46 29 46 3z m-1597 6 c-10
-2 -28 -2 -40 0 -13 2 -5 4 17 4 22 1 32 -1 23 -4z m105 0 c-7 -2 -19 -2 -25
0 -7 3 -2 5 12 5 14 0 19 -2 13 -5z m-2170 -23 c3 -11 1 -18 -4 -14 -5 3 -9
12 -9 20 0 20 7 17 13 -6z m1957 10 c0 -5 -5 -10 -11 -10 -5 0 -7 5 -4 10 3 6
8 10 11 10 2 0 4 -4 4 -10z m-65 -30 c3 -5 1 -10 -4 -10 -6 0 -11 5 -11 10 0
6 2 10 4 10 3 0 8 -4 11 -10z m40 0 c3 -6 -1 -7 -9 -4 -18 7 -21 14 -7 14 6 0
13 -4 16 -10z m1382 -20 c-3 -10 1 -24 9 -31 8 -6 14 -18 14 -25 0 -8 6 -14
13 -15 6 0 -1 -5 -16 -9 -16 -5 -34 -7 -41 -4 -16 6 -14 54 4 82 18 27 24 28
17 2z m-1546 -30 c6 0 7 4 4 10 -3 5 9 9 30 8 20 -1 31 -5 24 -9 -7 -4 -18 -5
-26 -2 -8 3 -13 0 -11 -8 2 -8 -3 -13 -9 -11 -7 1 -13 -2 -13 -8 0 -12 10 -13
29 -1 20 13 40 2 36 -19 -4 -18 -3 -18 31 0 21 12 34 15 34 8 0 -6 13 3 29 20
28 29 66 37 66 14 0 -6 3 -14 7 -18 4 -3 6 3 3 15 -4 22 9 29 20 11 5 -8 11
-8 19 -1 7 6 15 9 18 6 4 -4 37 -10 86 -14 6 0 12 -6 12 -12 0 -5 -5 -7 -12
-3 -7 5 -8 3 -3 -6 6 -10 11 -10 20 4 12 15 13 15 19 -1 6 -14 9 -15 15 -4 6
8 16 11 31 6 18 -6 20 -9 9 -16 -10 -6 -11 -9 -1 -9 6 0 12 -5 12 -11 0 -6 -9
-9 -20 -6 -11 3 -18 1 -15 -3 3 -5 -2 -13 -11 -18 -15 -8 -15 -10 0 -15 9 -4
15 -3 15 1 -3 19 2 25 11 12 7 -11 10 -11 10 -2 0 7 4 11 8 8 4 -2 9 7 10 21
1 15 4 29 7 31 3 3 39 -12 81 -32 53 -27 73 -41 65 -49 -14 -14 -134 -16 -143
-3 -5 7 -8 7 -8 -1 0 -7 -5 -13 -11 -13 -5 0 -7 5 -4 10 7 12 -8 14 -19 3 -11
-11 -176 -11 -169 1 4 5 1 6 -8 0 -22 -13 -230 -15 -222 -1 5 8 2 8 -8 0 -11
-9 -25 -10 -47 -3 -18 5 -30 5 -27 1 2 -5 -28 -9 -68 -10 -82 -1 -232 -9 -232
-11 0 -1 -31 -4 -70 -5 -38 -2 -70 -5 -70 -6 0 -1 -22 -3 -50 -4 -36 -2 -54 2
-62 13 -12 14 -13 14 -13 -1 0 -11 -8 -17 -22 -18 -13 0 -33 -2 -45 -5 -30 -5
-38 12 -9 20 13 3 32 9 42 13 13 5 15 3 9 -8 -4 -8 2 -4 14 8 12 13 35 29 50
38 25 12 29 12 27 0 -1 -8 -10 -23 -21 -35 -10 -11 -13 -20 -7 -20 7 0 12 5
12 11 0 7 9 9 21 6 14 -4 18 -2 11 6 -9 12 -8 44 2 54 3 3 17 6 31 6 14 0 28
4 31 8 3 5 10 7 15 4 5 -4 9 -1 9 4 0 6 8 11 18 11 14 0 15 -2 2 -10 -13 -8
-12 -10 3 -10 9 0 17 7 17 15 0 8 9 15 19 15 11 0 27 3 37 7 13 5 16 3 11 -9
-7 -19 2 -30 17 -21 17 11 36 12 36 3 0 -11 -37 -23 -49 -16 -5 4 -11 3 -14
-1 -2 -5 -3 -3 -1 4 4 17 -8 24 -22 12 -7 -6 -10 -17 -7 -25 3 -8 -4 -17 -18
-22 l-23 -9 22 -5 c14 -4 20 -2 16 4 -4 6 -1 8 7 6 8 -3 13 -11 11 -17 -1 -7
2 -10 8 -6 8 5 8 11 0 20 -11 13 -10 14 52 31 13 4 16 1 12 -10 -4 -11 0 -16
12 -16 14 0 16 2 6 9 -27 16 0 49 37 45 13 -1 30 4 38 12 8 8 19 11 25 8 7 -4
8 -2 4 4 -5 9 -13 9 -26 2 -11 -6 -23 -10 -27 -9 -4 1 -10 1 -13 -1 -24 -9
-50 -8 -50 3 0 9 -2 9 -8 0 -5 -8 -13 -9 -22 -3 -13 9 -13 10 0 11 8 1 40 3
70 6 30 2 86 6 123 8 38 2 71 6 75 10 4 3 8 1 10 -4 2 -6 8 -11 13 -11z m124
10 c8 13 45 13 45 1 0 -6 -5 -13 -12 -17 -7 -5 -9 -2 -4 7 5 8 2 8 -6 -2 -7
-9 -19 -14 -25 -12 -7 3 -13 0 -13 -5 0 -5 -9 -12 -20 -15 -11 -3 -18 -1 -15
3 3 5 0 12 -5 15 -7 5 -5 12 7 20 12 9 22 10 30 4 7 -7 13 -6 18 1z m-1331
-57 c-24 -18 -31 -16 -37 6 -7 27 1 32 30 18 23 -10 24 -12 7 -24z m476 16 c0
-5 -4 -9 -10 -9 -5 0 -10 7 -10 16 0 8 5 12 10 9 6 -3 10 -10 10 -16z m-1162
-43 c-5 -33 -23 -24 -26 13 -3 31 -2 33 13 21 9 -7 15 -23 13 -34z m790 16 c6
-18 -15 -14 -22 4 -4 10 -1 14 6 12 6 -2 14 -10 16 -16z m-17 -46 c-10 -12 -8
-15 10 -18 26 -3 39 -28 15 -28 -9 0 -16 6 -17 13 0 10 -2 10 -6 0 -2 -7 -11
-13 -19 -13 -8 0 -14 -4 -14 -10 0 -23 -19 -7 -25 21 -8 35 4 49 44 49 19 0
21 -3 12 -14z m1807 -9 c13 4 14 3 6 -6 -13 -14 -47 -3 -37 12 5 8 8 8 10 0 3
-7 12 -9 21 -6z m1335 -12 c-20 -27 -29 -30 -38 -14 -8 11 22 38 43 39 9 0 8
-7 -5 -25z m-1280 -2 c-7 -2 -19 -2 -25 0 -7 3 -2 5 12 5 14 0 19 -2 13 -5z
m-2204 -55 c-5 -18 -9 -34 -9 -35 0 -2 -4 -3 -9 -3 -5 0 -13 10 -17 22 -4 15
-1 25 12 35 28 20 33 16 23 -19z m61 -2 c-14 -14 -22 -2 -14 18 5 14 9 15 15
4 4 -7 4 -17 -1 -22z m650 24 c-19 -5 -38 -5 -43 -1 -4 4 12 8 35 8 l43 2 -35
-9z m-1126 -65 c1 -11 -3 -22 -9 -25 -6 -3 -11 16 -12 45 -2 44 -1 47 9 25 6
-14 11 -34 12 -45z m1026 54 c0 -5 -4 -7 -10 -4 -5 3 -20 1 -32 -5 -22 -11
-22 -10 -4 4 23 18 46 21 46 5z m2250 1 c0 -5 -4 -10 -10 -10 -5 0 -10 5 -10
10 0 6 5 10 10 10 6 0 10 -4 10 -10z m-3064 -105 c18 -9 19 -12 7 -24 -34 -31
-92 59 -60 93 10 11 14 7 22 -22 6 -20 20 -41 31 -47z m733 82 c-2 -1 -13 -9
-24 -17 -19 -14 -19 -14 -6 3 7 9 18 17 24 17 6 0 8 -1 6 -3z m2311 -12 c0 -8
-4 -15 -10 -15 -5 0 -10 7 -10 15 0 8 5 15 10 15 6 0 10 -7 10 -15z m350 -32
c0 -10 -6 -13 -16 -9 -9 3 -18 6 -20 6 -2 0 -4 6 -4 14 0 9 7 12 20 9 11 -3
20 -12 20 -20z m-235 -53 c3 -5 1 -10 -4 -10 -6 0 -11 5 -11 10 0 6 2 10 4 10
3 0 8 -4 11 -10z m-2965 -4 c0 -3 -4 -8 -10 -11 -5 -3 -10 -1 -10 4 0 6 5 11
10 11 6 0 10 -2 10 -4z m3037 -21 c3 -9 -2 -24 -11 -34 -9 -10 -13 -21 -9 -24
3 -4 1 -7 -5 -7 -7 0 -12 6 -13 13 -4 44 -3 53 6 59 16 12 25 9 32 -7z m-447
-41 c0 -8 -4 -14 -9 -14 -6 0 -8 -9 -6 -19 2 -11 -4 -25 -13 -32 -14 -11 -15
-11 -5 1 8 9 9 17 3 25 -7 9 -6 16 4 24 8 7 12 20 9 28 -4 11 -2 14 5 9 7 -4
12 -14 12 -22z m-1175 6 c3 -5 21 -11 38 -11 27 -1 25 -3 -13 -9 -55 -9 -75
-4 -59 16 14 16 25 18 34 4z m-1047 -29 c-5 -24 -33 -19 -36 6 -3 17 1 20 18
16 12 -3 20 -12 18 -22z m1362 19 c-14 -4 -38 -8 -55 -8 -25 -1 -27 1 -10 8
11 5 36 8 55 8 32 0 33 -1 10 -8z m-1637 -47 c-9 -7 -20 -10 -24 -7 -15 9 -10
32 9 43 23 13 36 -19 15 -36z m1537 35 c0 -4 -30 -7 -67 -6 l-68 1 50 7 c65 8
85 8 85 -2z m1753 -14 c13 -13 -14 -44 -39 -44 -20 0 -25 -4 -20 -16 4 -12 0
-15 -17 -12 -17 2 -23 11 -25 36 -3 28 0 32 20 31 13 0 17 -3 11 -6 -7 -2 -12
-14 -12 -26 1 -17 2 -18 6 -4 2 9 13 17 24 17 10 0 19 7 19 15 0 15 21 21 33
9z m-360 -26 c-6 -7 -10 -32 -9 -55 0 -23 -3 -41 -9 -40 -5 1 -11 -8 -13 -20
-3 -18 -6 -20 -17 -10 -8 8 -9 14 -3 18 7 5 7 17 0 39 -10 26 -9 36 6 56 9 13
25 24 36 24 13 0 16 -3 9 -12z m123 -63 c-6 -23 -4 -25 22 -22 15 2 33 7 40
11 7 4 12 2 12 -3 0 -6 -4 -11 -9 -11 -5 0 -11 -9 -14 -20 -6 -25 -16 -25 -46
0 -17 15 -22 26 -17 45 4 14 9 25 12 25 4 0 3 -11 0 -25z m-2899 -5 c-1 -11
-5 -20 -9 -20 -4 0 -8 9 -8 20 0 11 4 20 9 20 6 0 9 -9 8 -20z m2568 10 c3 -5
1 -10 -4 -10 -6 0 -11 5 -11 10 0 6 2 10 4 10 3 0 8 -4 11 -10z m-1170 -11 c9
-14 7 -15 -42 -22 -32 -4 -43 -2 -43 8 0 7 6 16 13 18 22 10 66 7 72 -4z m1
-37 c23 -15 37 -52 43 -119 0 -7 11 -10 22 -8 12 3 19 2 16 -2 -4 -3 4 -24 17
-47 13 -22 22 -47 19 -54 -3 -7 -1 -11 4 -10 5 2 26 -14 47 -36 38 -37 41 -38
95 -33 75 6 163 -8 178 -30 15 -19 17 -37 5 -29 -4 3 -13 -7 -18 -22 -8 -22
-7 -31 7 -45 16 -18 18 -17 33 5 9 12 16 20 16 16 0 -3 3 -15 6 -25 4 -14 4
-15 -4 -4 -17 24 -33 -20 -22 -60 11 -41 9 -77 -8 -106 -7 -12 -11 -26 -10
-30 4 -18 -14 -93 -23 -93 -6 0 -8 -4 -4 -9 3 -5 0 -13 -6 -17 -8 -5 -8 -8 0
-14 8 -4 2 -16 -16 -36 l-28 -29 -6 35 c-4 22 -7 27 -8 12 0 -12 -8 -25 -16
-28 -8 -4 -12 -10 -9 -15 3 -5 -2 -9 -10 -9 -14 0 -20 -12 -17 -32 0 -5 -8 -8
-18 -8 -11 0 -29 -14 -41 -30 -16 -22 -29 -30 -51 -30 -17 0 -28 -4 -25 -9 6
-9 -60 -8 -69 1 -3 3 -19 4 -35 2 -16 -2 -32 1 -35 6 -7 11 -33 3 -56 -17 -9
-7 -27 -12 -40 -12 -13 1 -36 -2 -51 -6 -19 -5 -28 -3 -28 5 0 6 -4 9 -9 5 -5
-3 -12 -1 -16 5 -3 5 -12 10 -18 10 -9 0 -9 -2 -1 -8 9 -5 8 -11 -2 -20 -12
-10 -14 -10 -14 3 0 8 -7 15 -16 15 -9 0 -12 5 -8 12 5 8 2 9 -10 5 -10 -4
-19 -1 -22 7 -6 15 -44 10 -44 -6 0 -7 -5 -6 -13 1 -17 13 -27 5 -21 -17 5
-14 4 -14 -6 1 -6 9 -16 14 -22 11 -8 -5 -9 -1 -5 10 4 10 3 15 -3 11 -6 -3
-10 0 -10 7 0 10 -3 9 -11 -2 -9 -12 -10 -11 -6 8 3 12 2 20 -2 18 -10 -6 -46
54 -47 79 -1 11 3 23 10 27 7 5 6 8 -5 8 -8 0 -26 11 -39 25 -13 14 -20 25
-16 25 4 0 2 9 -4 19 -6 13 -18 18 -35 16 -14 -1 -28 1 -30 5 -3 5 6 7 19 6
15 -2 27 3 31 13 3 8 3 13 0 9 -4 -3 -18 0 -32 7 -19 10 -32 11 -46 4 -10 -6
-21 -8 -24 -6 -2 3 5 8 16 12 13 4 18 11 14 22 -4 11 -2 14 5 9 8 -5 10 -2 6
9 -5 13 -9 13 -22 3 -12 -10 -14 -10 -8 -1 4 7 9 22 11 34 2 11 7 30 10 42 5
17 4 19 -4 7 -9 -13 -11 -13 -11 2 0 9 5 20 10 23 6 4 9 14 8 22 -2 9 12 24
32 36 19 10 45 29 58 42 22 22 38 28 171 60 36 9 79 26 95 39 36 27 109 153
99 170 -3 6 -2 8 2 3 10 -8 35 45 35 74 0 41 62 74 96 51z m1057 -74 c-2 -5
-8 -8 -14 -8 -11 0 -12 33 -2 44 8 8 23 -25 16 -36z m217 23 c0 -16 -12 -41
-20 -41 -4 0 -5 11 -2 25 4 23 22 36 22 16z m-509 -25 c-1 -3 -4 -7 -8 -8 -5
0 -14 -8 -21 -17 -10 -12 -12 -13 -6 -1 16 33 38 49 35 26z m-1817 -17 c-3 -6
2 -20 13 -31 18 -21 18 -21 -3 -10 -20 11 -22 9 -20 -21 3 -35 12 -57 25 -57
11 0 31 46 32 73 0 12 3 16 6 9 2 -6 8 -10 13 -7 4 2 12 -18 17 -45 9 -42 8
-48 -3 -39 -10 8 -14 8 -14 1 0 -6 -6 -9 -13 -6 -8 3 -32 1 -55 -5 -33 -7 -42
-6 -42 4 0 8 -9 20 -20 28 -11 8 -17 17 -12 22 4 4 -3 3 -15 -4 -12 -6 -24
-11 -27 -11 -10 0 -6 30 4 31 6 1 13 3 18 4 4 2 17 6 30 10 12 4 22 15 22 25
0 22 28 52 41 44 5 -3 7 -10 3 -15z m1837 -2 c-10 -9 -11 -8 -5 6 3 10 9 15
12 12 3 -3 0 -11 -7 -18z m-2371 -7 c0 -5 -2 -10 -4 -10 -3 0 -8 5 -11 10 -3
6 -1 10 4 10 6 0 11 -4 11 -10z m565 0 c3 -5 1 -10 -4 -10 -6 0 -11 5 -11 10
0 6 2 10 4 10 3 0 8 -4 11 -10z m374 -59 c7 -22 7 -39 1 -50 -9 -14 -9 -14
-10 2 0 20 -16 23 -22 5 -3 -8 -9 -4 -17 9 -9 19 -9 29 5 54 17 34 26 31 43
-20z m1711 29 c0 -5 -7 -10 -16 -10 -8 0 -12 5 -9 10 3 6 10 10 16 10 5 0 9
-4 9 -10z m-260 -20 c0 -11 -4 -20 -8 -20 -4 0 -8 9 -8 20 0 11 4 20 8 20 4 0
8 -9 8 -20z m210 -18 l-1 -27 -13 25 c-15 25 -12 45 5 35 5 -4 9 -18 9 -33z
m-40 3 c0 -8 -4 -15 -10 -15 -5 0 -10 7 -10 15 0 8 5 15 10 15 6 0 10 -7 10
-15z m-130 -10 c0 -8 -7 -15 -15 -15 -16 0 -20 12 -8 23 11 12 23 8 23 -8z
m-1843 -67 c4 -7 15 -34 25 -60 14 -42 15 -48 1 -48 -8 0 -27 13 -42 28 -22
22 -27 34 -23 60 4 32 24 42 39 20z m1883 -23 c7 -8 10 -25 6 -38 -8 -34 -47
-29 -62 9 -11 26 -10 30 9 36 33 9 34 9 47 -7z m-1156 -21 c4 -9 2 -13 -5 -8
-6 4 -15 0 -20 -7 -7 -11 -9 -11 -9 3 0 9 6 19 13 21 6 3 13 6 13 6 1 1 5 -6
8 -15z m-667 -26 c-3 -7 -5 -2 -5 12 0 14 2 19 5 13 2 -7 2 -19 0 -25z m433
22 c0 -5 -2 -10 -4 -10 -3 0 -8 5 -11 10 -3 6 -1 10 4 10 6 0 11 -4 11 -10z
m190 -10 c0 -11 -48 -25 -57 -16 -4 3 3 6 15 6 12 0 22 5 22 10 0 6 5 10 10
10 6 0 10 -4 10 -10z m-825 -37 c-2 -23 -7 -28 -29 -26 -25 2 -25 1 -10 -23
14 -20 14 -29 4 -54 -7 -17 -16 -30 -20 -30 -13 0 -28 46 -25 83 1 20 -2 37
-7 37 -5 0 -6 -4 -3 -10 3 -5 -1 -10 -9 -10 -9 0 -16 6 -16 14 0 17 27 28 49
21 10 -3 26 2 37 10 27 21 33 19 29 -12z m202 -30 c-3 -10 -5 -4 -5 12 0 17 2
24 5 18 2 -7 2 -21 0 -30z m209 -35 c2 -24 9 -44 14 -46 13 -5 13 -52 0 -52
-5 0 -9 3 -9 8 1 4 1 14 0 22 -1 13 -3 13 -10 0 -6 -8 -8 -17 -5 -22 8 -13
-34 -48 -105 -85 -1 -1 8 -17 22 -35 35 -48 52 -112 34 -135 -6 -9 -4 -15 8
-19 22 -9 50 9 49 30 -1 9 2 16 7 16 5 0 9 10 9 22 0 20 2 20 14 8 23 -23 31
-70 13 -70 -8 0 -20 -13 -27 -30 -7 -17 -17 -27 -23 -23 -6 4 -25 7 -42 7 -28
1 -30 3 -31 42 -1 53 -10 67 -37 58 -20 -6 -20 -5 -8 10 10 12 11 20 4 24 -6
4 -13 22 -15 41 -2 21 -11 39 -25 48 -22 15 -22 14 -18 -21 3 -20 1 -36 -5
-36 -6 0 -10 -9 -10 -20 0 -24 -38 -28 -46 -5 -4 8 -13 15 -21 15 -9 0 -14 8
-12 23 1 12 -1 30 -6 40 -4 9 -2 23 4 30 6 9 7 24 2 43 -5 16 -10 25 -10 19
-1 -5 -7 -1 -15 10 -18 27 -14 80 9 105 21 23 24 24 45 10 13 -9 13 -11 0 -20
-13 -8 -12 -10 3 -10 18 0 57 -54 57 -80 0 -13 -1 -13 -10 0 -6 10 -10 11 -10
3 0 -7 -9 -13 -20 -13 -31 0 -24 -14 18 -32 41 -18 51 -16 33 5 -15 19 2 33
49 42 53 10 90 49 90 94 0 17 19 34 28 25 2 -1 6 -22 8 -46z m-572 -13 c-3
-17 0 -25 10 -25 22 0 41 -29 28 -42 -7 -7 -12 -20 -12 -29 0 -10 -5 -19 -11
-21 -17 -6 7 -48 26 -48 8 0 12 -6 9 -14 -3 -8 2 -16 13 -19 10 -3 -4 -3 -32
-1 l-50 4 50 -16 c27 -9 55 -24 62 -33 11 -15 12 -15 18 2 5 11 18 17 40 17
21 0 35 6 39 16 9 23 3 26 -19 10 -16 -12 -24 -9 -61 18 -50 36 -61 56 -39 69
11 6 14 15 9 30 -6 19 -5 20 9 8 11 -9 15 -25 13 -52 -3 -31 0 -39 14 -39 9 0
20 3 24 7 4 4 14 8 23 8 9 0 23 14 32 31 l17 31 17 -24 c10 -13 15 -28 11 -34
-12 -19 -12 -79 0 -79 6 0 3 -7 -6 -14 -24 -18 -22 -33 5 -42 42 -13 49 -24
24 -45 -13 -11 -17 -19 -9 -20 6 -1 18 -2 24 -3 7 0 14 -8 16 -16 4 -23 -87
-14 -95 9 -2 9 -11 28 -19 43 -18 33 -18 38 1 38 17 0 19 9 5 30 -6 9 -10 10
-10 3 0 -20 -51 -65 -66 -59 -8 3 -19 16 -24 28 -8 21 -9 21 -10 3 0 -12 -3
-16 -8 -9 -4 6 -15 13 -25 17 -9 4 -16 12 -15 19 2 8 -14 14 -44 18 -47 6 -67
-7 -28 -17 11 -3 20 -10 20 -15 0 -5 -9 -7 -19 -3 -11 3 -22 1 -26 -5 -3 -5
-15 -10 -26 -10 -16 0 -19 7 -19 50 0 55 -9 62 -37 26 -18 -22 -21 -23 -46
-10 -15 8 -27 18 -27 21 0 14 43 51 54 47 6 -2 17 8 24 23 7 16 18 39 26 52
l14 23 11 -21 c11 -20 61 -31 61 -13 0 5 14 7 30 6 22 -1 30 2 30 15 0 14 -8
17 -40 15 -31 -1 -40 2 -40 15 0 12 40 48 57 51 1 0 0 -11 -3 -25z m1766 1 c0
-3 -4 -8 -10 -11 -5 -3 -10 -1 -10 4 0 6 5 11 10 11 6 0 10 -2 10 -4z m-2000
-42 c0 -8 -4 -12 -10 -9 -5 3 -10 1 -10 -6 0 -7 -2 -10 -5 -7 -8 7 5 38 16 38
5 0 9 -7 9 -16z m2140 2 c0 -3 -4 -8 -10 -11 -5 -3 -10 -1 -10 4 0 6 5 11 10
11 6 0 10 -2 10 -4z m60 -22 c0 -8 -7 -14 -15 -14 -8 0 -15 9 -15 20 0 13 5
18 15 14 8 -4 15 -12 15 -20z m-180 -12 c0 -15 -2 -15 -10 -2 -13 20 -13 33 0
25 6 -3 10 -14 10 -23z m-1710 -22 c0 -5 -4 -10 -10 -10 -5 0 -10 5 -10 10 0
6 5 10 10 10 6 0 10 -4 10 -10z m556 -46 c-3 -7 3 -18 12 -23 15 -9 14 -10 -5
-8 -17 1 -23 7 -23 25 0 21 -2 22 -15 12 -9 -8 -15 -8 -15 -2 0 6 -3 17 -6 26
-5 14 -3 14 26 0 19 -10 29 -21 26 -30z m33 -7 c12 -15 12 -17 -3 -11 -9 3
-16 13 -16 22 0 8 1 13 3 11 1 -2 9 -12 16 -22z m-995 -86 c3 -5 -1 -11 -9
-15 -9 -3 -15 0 -15 9 0 16 16 20 24 6z m56 3 c0 -8 -19 -13 -24 -6 -3 5 1 9
9 9 8 0 15 -2 15 -3z m98 -2 c9 -6 10 -16 4 -33 -6 -15 -5 -30 2 -41 9 -14 6
-28 -13 -63 -13 -25 -28 -45 -32 -45 -11 0 -11 11 1 30 5 9 5 19 -2 27 -8 10
-6 19 7 33 11 13 14 20 6 20 -8 0 -10 7 -6 19 3 11 1 22 -4 25 -13 8 -3 36 13
36 6 0 17 -4 24 -8z m-453 -38 c8 -4 23 -20 31 -36 9 -17 21 -27 29 -24 14 5
45 -23 45 -43 0 -7 14 -17 31 -23 34 -12 37 -43 4 -43 -11 0 -35 -8 -53 -18
-33 -18 -34 -22 -15 -73 7 -18 -14 -26 -37 -14 -11 6 -20 21 -20 34 0 17 -10
28 -35 40 -41 20 -54 42 -46 76 5 18 15 26 34 28 31 4 37 32 7 32 -23 0 -28
38 -8 58 14 14 12 14 33 6z m645 -4 c0 -5 -8 -10 -17 -10 -15 0 -16 2 -3 10
19 12 20 12 20 0z m380 -21 c0 -11 -27 -12 -34 0 -3 4 -3 11 0 14 8 8 34 -3
34 -14z m367 -6 c-9 -8 -47 -11 -47 -4 0 5 11 9 25 9 14 0 24 -2 22 -5z m-887
-32 c0 -5 -7 -12 -16 -15 -14 -5 -15 -4 -4 9 14 17 20 19 20 6z m858 -22 c-3
-8 -7 -3 -11 10 -4 17 -3 21 5 13 5 -5 8 -16 6 -23z m1928 -26 c25 -16 33 -53
12 -54 -7 0 -3 -4 10 -9 44 -18 16 -48 -33 -36 -14 4 -23 10 -21 15 3 5 -1 21
-8 37 -15 31 -19 48 -17 77 1 17 2 17 17 2 9 -9 27 -23 40 -32z m-787 3 c8
-10 9 -16 1 -21 -13 -8 -30 3 -30 21 0 18 14 18 29 0z m-2134 -16 c0 -8 -10
-16 -22 -18 -18 -3 -23 2 -23 18 0 16 5 21 23 18 12 -2 22 -10 22 -18z m902
-12 c-3 -8 -6 -5 -6 6 -1 11 2 17 5 13 3 -3 4 -12 1 -19z m-634 -10 c-5 -7 -8
-23 -7 -36 1 -16 -3 -22 -13 -18 -8 3 -17 6 -19 6 -2 0 -4 7 -4 16 0 10 5 14
16 10 8 -3 12 -2 9 4 -8 12 2 30 17 30 7 0 7 -5 1 -12z m427 2 c0 -5 -2 -10
-4 -10 -3 0 -8 5 -11 10 -3 6 -1 10 4 10 6 0 11 -4 11 -10z m-696 -46 c4 -10
1 -14 -6 -12 -15 5 -23 28 -10 28 5 0 13 -7 16 -16z m864 -5 c12 -19 11 -20
-15 -17 -17 2 -29 10 -31 21 -5 24 30 22 46 -4z m-1058 -9 c0 -5 -4 -10 -10
-10 -5 0 -10 5 -10 10 0 6 5 10 10 10 6 0 10 -4 10 -10z m330 -14 c5 -13 14
-27 19 -31 17 -10 13 -28 -4 -21 -10 4 -15 -1 -15 -14 0 -14 -7 -20 -21 -20
-15 0 -19 5 -15 18 3 9 2 32 -3 49 -5 17 -7 34 -3 37 13 13 33 4 42 -18z m935
-6 c3 -5 1 -10 -4 -10 -6 0 -11 5 -11 10 0 6 2 10 4 10 3 0 8 -4 11 -10z
m2029 -26 c23 -9 19 -29 -8 -42 -20 -9 -27 -7 -42 9 -16 17 -16 22 -4 29 18
11 32 12 54 4z m-2270 -30 c3 -8 -1 -14 -9 -14 -8 0 -15 2 -15 4 0 2 -3 12 -6
20 -4 12 -2 15 9 10 9 -3 18 -12 21 -20z m-344 -51 c0 -28 -3 -34 -10 -23 -5
8 -10 29 -10 45 0 22 -3 26 -10 15 -5 -8 -12 -11 -15 -8 -4 4 -1 13 6 21 20
21 39 -3 39 -50z m-433 21 c10 10 33 -15 33 -36 0 -24 -21 -32 -65 -24 -24 5
-33 11 -28 21 3 8 -1 15 -7 15 -9 0 -7 7 5 20 14 15 22 17 37 9 11 -6 22 -8
25 -5z m251 -26 c-3 -7 -11 -13 -18 -13 -7 0 -15 6 -17 13 -3 7 4 12 17 12 13
0 20 -5 18 -12z m297 -24 c-23 -17 -12 -19 14 -2 15 9 22 8 36 -6 13 -13 15
-20 6 -29 -8 -8 -14 -6 -24 7 -12 17 -14 16 -37 -7 -30 -31 -69 -20 -70 20 0
12 37 29 54 25 5 -2 6 4 2 13 -5 13 -2 14 16 4 21 -11 21 -12 3 -25z m2559
-13 c16 -18 17 -23 5 -37 -15 -18 -59 -37 -67 -29 -3 2 -7 30 -9 60 l-4 56 28
-14 c15 -8 37 -24 47 -36z m-3435 -7 c8 -7 -4 -12 -34 -16 -21 -2 -30 2 -33
14 -3 15 2 17 30 11 18 -3 35 -7 37 -9z m2619 10 c75 -15 95 -83 41 -137 l-31
-30 22 -17 c20 -15 20 -17 5 -30 -13 -11 -23 -10 -60 9 -35 18 -64 23 -135 24
-67 2 -90 5 -90 15 0 7 -4 11 -9 8 -5 -4 -8 2 -6 11 2 10 4 46 4 81 l1 64 40
-3 c21 -2 42 0 46 4 9 9 130 9 172 1z m466 -35 c35 -27 52 -69 34 -81 -7 -4
-27 -8 -44 -8 -25 0 -33 5 -37 23 -3 17 -2 71 2 85 3 7 22 -1 45 -19z m-1967
-8 c2 -26 -21 -44 -47 -36 -25 8 -26 23 -2 41 25 19 48 17 49 -5z m-177 -16
c0 -16 -35 -21 -44 -6 -8 12 4 21 26 21 10 0 18 -7 18 -15z m2527 -25 c1 -11
-6 -24 -15 -29 -26 -13 -72 -10 -72 5 0 14 45 41 70 43 9 1 16 -8 17 -19z
m-257 0 c0 -5 -4 -10 -10 -10 -5 0 -10 5 -10 10 0 6 5 10 10 10 6 0 10 -4 10
-10z m390 -55 c-5 -13 -6 -26 -2 -30 7 -7 -25 -35 -40 -35 -13 0 -9 95 4 108
19 19 49 -14 38 -43z m-380 -13 c0 -13 -3 -12 -15 4 -19 25 -19 40 0 24 8 -7
15 -20 15 -28z m-3233 1 c-9 -2 -14 -9 -11 -15 4 -7 2 -8 -5 -4 -15 10 -4 26
17 25 15 -1 15 -2 -1 -6z m3398 -39 c19 -19 23 -29 16 -43 -7 -13 -5 -24 6
-41 15 -21 15 -22 -3 -17 -11 4 -31 9 -46 13 -28 6 -34 15 -21 28 4 4 6 25 4
46 -3 47 8 50 44 14z m-991 -47 c7 -6 6 -7 -4 -4 -8 2 -16 12 -17 23 -2 13 -1
15 4 4 3 -8 11 -19 17 -23z m796 13 c0 -5 -7 -7 -15 -4 -8 4 -15 8 -15 10 0 2
7 4 15 4 8 0 15 -4 15 -10z m104 -24 c6 -25 3 -28 -28 -31 -18 -2 -27 3 -31
16 -4 10 -11 19 -16 19 -5 0 -9 3 -9 8 0 4 18 7 39 8 32 0 41 -4 45 -20z m236
-5 c0 -6 -4 -13 -10 -16 -5 -3 -10 1 -10 9 0 9 5 16 10 16 6 0 10 -4 10 -9z
m-2442 -53 c-22 -13 -38 -9 -38 10 0 28 11 34 32 15 14 -13 16 -18 6 -25z
m1328 27 c9 -8 12 -20 9 -26 -5 -6 -12 -4 -21 8 -24 32 -15 45 12 18z m1073
-41 c2 -2 2 -7 -2 -10 -9 -9 -67 6 -67 18 0 9 58 2 69 -8z m-241 -22 c2 -7 -6
-12 -17 -12 -21 0 -27 11 -14 24 9 9 26 2 31 -12z m458 -129 c-11 -11 -19 6
-11 24 8 17 8 17 12 0 3 -10 2 -21 -1 -24z m-518 -8 c15 -5 21 -13 18 -22 -3
-8 -6 -21 -6 -29 0 -8 -7 -14 -15 -14 -7 0 -18 -7 -23 -16 -8 -14 -11 -14 -25
7 -12 17 -14 26 -6 36 6 7 9 21 7 31 -5 19 5 21 50 7z m-3314 -151 c3 -8 2
-12 -4 -9 -6 3 -10 10 -10 16 0 14 7 11 14 -7z"/>
<path d="M1800 2816 c0 -7 7 -13 15 -13 8 0 15 4 15 8 0 4 -7 9 -15 13 -9 3
-15 0 -15 -8z"/>
<path d="M70 2427 c0 -14 7 -28 16 -31 12 -5 15 0 12 21 -4 35 -28 43 -28 10z"/>
<path d="M1445 2619 c-4 -6 -5 -12 -2 -15 2 -3 7 2 10 11 7 17 1 20 -8 4z"/>
<path d="M3822 2270 c0 -14 2 -19 5 -12 2 6 2 18 0 25 -3 6 -5 1 -5 -13z"/>
<path d="M2202 2368 c-7 -7 -12 -8 -12 -3 0 5 -7 0 -15 -11 -15 -18 -15 -18
-29 0 -8 10 -19 15 -25 11 -14 -8 -13 -16 4 -39 14 -19 15 -19 35 -1 11 10 20
14 20 9 0 -5 6 0 12 11 11 19 11 19 19 0 6 -16 7 -15 6 8 -1 15 -2 27 -2 27
-1 0 -6 -5 -13 -12z m-52 -40 c0 -6 -7 -5 -15 2 -8 7 -15 17 -15 22 0 6 7 5
15 -2 8 -7 15 -17 15 -22z"/>
<path d="M1806 2359 c2 -5 12 -5 21 -2 12 5 14 3 8 -7 -6 -10 -3 -12 13 -8 12
4 22 2 22 -4 0 -5 5 -6 11 -3 21 14 1 30 -39 31 -23 0 -39 -3 -36 -7z"/>
<path d="M1900 2341 c-6 -11 -6 -22 -1 -25 5 -3 11 5 13 19 6 30 2 32 -12 6z"/>
<path d="M2235 2350 c3 -5 8 -10 11 -10 2 0 4 5 4 10 0 6 -5 10 -11 10 -5 0
-7 -4 -4 -10z"/>
<path d="M1560 2329 c0 -5 5 -7 10 -4 6 3 10 8 10 11 0 2 -4 4 -10 4 -5 0 -10
-5 -10 -11z"/>
<path d="M1754 2319 c-9 -10 -14 -24 -11 -31 4 -11 6 -11 6 0 1 7 7 20 15 27
12 12 15 12 21 -3 7 -15 8 -15 15 3 8 19 9 19 9 -3 1 -19 -3 -22 -20 -17 -14
5 -19 3 -15 -3 3 -6 0 -13 -6 -16 -7 -3 -2 -3 12 0 14 3 40 12 58 20 18 8 38
12 45 9 6 -4 3 1 -7 9 -11 9 -25 16 -30 16 -6 0 -5 -4 2 -9 10 -6 9 -10 -7
-14 -16 -4 -21 -1 -19 11 4 23 -48 23 -68 1z"/>
<path d="M2254 2329 c-6 -11 9 -18 32 -15 10 2 17 7 14 11 -6 12 -39 14 -46 4z"/>
<path d="M1960 2310 c-13 -8 -12 -10 3 -10 9 0 17 5 17 10 0 12 -1 12 -20 0z"/>
<path d="M2485 2310 c4 -6 -1 -20 -11 -31 -24 -27 -10 -24 17 4 16 15 20 17
16 5 -3 -9 0 -19 7 -21 22 -9 6 32 -16 44 -15 8 -19 8 -13 -1z"/>
<path d="M1474 2289 c-9 -10 -24 -19 -33 -20 -10 0 -7 -4 8 -10 13 -5 33 -7
44 -3 15 5 17 3 11 -7 -6 -10 -3 -10 10 1 18 14 18 15 0 20 -11 3 -20 11 -21
18 -3 14 9 16 23 4 5 -5 19 -3 32 3 22 12 21 13 -16 13 -27 1 -46 -5 -58 -19z
m13 -25 c-3 -3 -12 -4 -19 -1 -8 3 -5 6 6 6 11 1 17 -2 13 -5z"/>
<path d="M2107 2299 c7 -7 15 -10 18 -7 3 3 -2 9 -12 12 -14 6 -15 5 -6 -5z"/>
<path d="M2215 2300 c-4 -6 -13 -9 -21 -6 -8 3 -14 1 -14 -4 0 -6 6 -10 13
-10 18 0 43 18 35 25 -3 4 -9 1 -13 -5z"/>
<path d="M2255 2288 c23 -31 38 -37 28 -10 -6 15 -5 15 10 3 15 -12 17 -12 11
3 -4 10 -13 15 -22 11 -8 -3 -22 0 -30 7 -11 9 -9 4 3 -14z"/>
<path d="M1700 2290 c0 -5 7 -7 15 -4 8 4 15 8 15 10 0 2 -7 4 -15 4 -8 0 -15
-4 -15 -10z"/>
<path d="M1898 2288 c-9 -5 -6 -8 9 -8 12 0 24 4 27 8 7 11 -19 11 -36 0z"/>
<path d="M1856 2276 c10 -8 21 -12 24 -10 5 6 -21 24 -34 24 -6 0 -1 -6 10
-14z"/>
<path d="M1370 2270 c-8 -5 -12 -12 -9 -15 4 -3 12 1 19 10 14 17 11 19 -10 5z"/>
<path d="M2148 2273 c7 -3 16 -2 19 1 4 3 -2 6 -13 5 -11 0 -14 -3 -6 -6z"/>
<path d="M2170 1663 c0 -6 8 -17 18 -24 16 -13 16 -13 2 6 -8 11 -16 22 -17
24 -2 2 -3 0 -3 -6z"/>
<path d="M2180 1531 c-35 -26 -89 -32 -124 -14 -15 8 -37 13 -47 10 -11 -3
-19 0 -20 6 0 7 -4 2 -9 -10 -9 -22 -24 -27 -62 -24 -10 1 -18 -2 -18 -7 0
-17 36 -42 61 -42 29 0 71 -26 109 -69 25 -27 32 -30 54 -21 42 16 105 61 111
80 3 10 12 21 20 24 9 3 15 19 15 42 0 28 -3 35 -15 30 -8 -3 -15 -1 -15 4 0
16 -33 11 -60 -9z"/>
<path d="M1611 1394 c0 -11 3 -14 6 -6 3 7 2 16 -1 19 -3 4 -6 -2 -5 -13z"/>
<path d="M2288 1327 c-12 -4 -42 -10 -67 -13 -25 -3 -50 -8 -55 -12 -6 -3 -69
-7 -141 -9 -71 -2 -134 -4 -140 -5 -5 -1 -27 2 -47 6 -33 6 -38 4 -38 -12 0
-24 65 -45 118 -38 66 10 134 15 272 21 138 6 190 17 190 41 0 26 -48 37 -92
21z"/>
<path d="M2546 1291 c-3 -5 1 -11 9 -14 9 -4 12 -1 8 9 -6 16 -10 17 -17 5z"/>
<path d="M2050 1169 c-21 -4 -27 -7 -15 -9 12 -2 7 -5 -15 -10 l-35 -7 30 -12
c20 -8 46 -10 80 -4 27 4 56 7 63 6 12 -1 52 30 52 41 0 5 -122 2 -160 -5z"/>
<path d="M2500 1131 c-6 -12 -7 -21 -1 -21 10 0 24 30 17 37 -2 3 -9 -5 -16
-16z"/>
<path d="M1694 1129 c-3 -5 0 -9 5 -9 6 0 11 -6 11 -12 0 -7 11 -26 25 -42 24
-28 34 -26 15 4 -6 9 -5 17 2 21 9 6 8 11 0 22 -16 19 -50 28 -58 16z"/>
<path d="M1676 1107 c3 -10 9 -15 12 -12 3 3 0 11 -7 18 -10 9 -11 8 -5 -6z"/>
<path d="M1640 1096 c0 -2 7 -6 15 -10 8 -3 15 -1 15 4 0 6 -7 10 -15 10 -8 0
-15 -2 -15 -4z"/>
<path d="M1770 940 c0 -5 5 -10 10 -10 6 0 10 5 10 10 0 6 -4 10 -10 10 -5 0
-10 -4 -10 -10z"/>
<path d="M1356 1453 c-6 -14 -5 -15 5 -6 7 7 10 15 7 18 -3 3 -9 -2 -12 -12z"/>
<path d="M1356 1415 c4 -8 8 -15 10 -15 2 0 4 7 4 15 0 8 -4 15 -10 15 -5 0
-7 -7 -4 -15z"/>
<path d="M950 1260 c0 -5 5 -10 10 -10 6 0 10 5 10 10 0 6 -4 10 -10 10 -5 0
-10 -4 -10 -10z"/>
<path d="M545 849 c-10 -15 3 -25 16 -12 7 7 7 13 1 17 -6 3 -14 1 -17 -5z"/>
<path d="M2918 3993 c7 -3 16 -2 19 1 4 3 -2 6 -13 5 -11 0 -14 -3 -6 -6z"/>
<path d="M3350 3984 c0 -17 22 -14 28 4 2 7 -3 12 -12 12 -9 0 -16 -7 -16 -16z"/>
<path d="M3401 3943 c-37 -41 -48 -60 -40 -69 10 -13 14 -26 29 -117 5 -31 12
-62 16 -68 11 -19 44 32 44 68 0 24 7 37 26 49 14 10 36 40 50 67 l24 50 -25
29 c-14 16 -25 34 -25 39 0 5 -11 9 -24 9 -17 0 -40 -17 -75 -57z"/>
<path d="M3534 3978 c-4 -12 -1 -24 7 -29 16 -10 32 -1 23 13 -4 6 -2 8 3 5 6
-4 18 2 27 12 17 18 16 19 -18 19 -27 0 -37 -5 -42 -20z"/>
<path d="M3800 3973 c-13 -26 -71 -118 -129 -207 -51 -77 -201 -358 -201 -376
0 -4 -16 -24 -35 -45 -20 -20 -44 -54 -55 -75 -17 -32 -17 -39 -5 -44 8 -3 15
-16 15 -29 0 -14 6 -30 14 -36 11 -9 16 -3 25 33 6 25 11 56 11 70 0 14 4 27
8 30 5 3 7 20 5 38 -1 18 0 27 3 20 7 -14 31 13 59 67 9 19 20 30 24 25 3 -5
16 -10 28 -12 30 -4 43 24 43 93 0 64 38 150 70 158 10 2 24 25 34 57 9 29 27
69 40 89 12 20 39 66 60 104 33 59 35 67 18 67 -10 0 -25 -12 -32 -27z"/>
<path d="M3920 3968 c-11 -18 -20 -36 -20 -40 0 -4 -15 -28 -32 -53 -26 -37
-30 -48 -19 -54 9 -6 11 -16 7 -27 -7 -18 -8 -18 -21 -1 -12 17 -14 16 -26
-17 -7 -20 -16 -36 -20 -36 -4 0 -15 -24 -25 -52 -9 -29 -28 -78 -42 -108 -14
-30 -24 -59 -23 -63 1 -4 -7 -38 -18 -75 -11 -37 -22 -84 -26 -104 -7 -45 -23
-57 -42 -32 -14 17 -14 16 -7 -16 5 -19 9 -52 8 -72 0 -21 3 -35 7 -30 20 22
77 175 82 222 4 30 11 56 17 58 5 2 10 17 10 33 0 17 5 39 10 50 6 10 16 46
23 80 12 59 13 61 30 45 16 -16 18 -15 33 21 9 21 23 52 32 68 121 234 121
235 101 235 -11 0 -28 -14 -39 -32z"/>
<path d="M5 3972 c-3 -3 -5 -14 -5 -24 0 -19 15 -24 25 -8 3 6 15 10 26 10 10
0 19 6 19 13 0 13 -54 20 -65 9z"/>
<path d="M2473 3952 c-8 -5 -9 -13 -3 -22 7 -12 12 -12 22 -2 14 14 -1 35 -19
24z"/>
<path d="M120 3915 c7 -9 15 -13 17 -11 7 7 -7 26 -19 26 -6 0 -6 -6 2 -15z"/>
<path d="M569 3925 c-15 -25 -19 -83 -6 -88 16 -6 43 33 29 42 -6 3 -12 17
-14 31 -1 14 -6 21 -9 15z"/>
<path d="M3633 3898 c4 -12 2 -15 -9 -11 -7 3 -14 0 -14 -5 0 -11 -24 -48 -71
-112 -32 -43 -41 -67 -29 -75 6 -4 6 -14 0 -26 -6 -11 -15 -17 -19 -14 -5 3
-11 -1 -14 -8 -8 -20 -3 -32 10 -29 7 2 13 -3 13 -10 1 -27 50 85 50 114 0 20
6 31 18 34 24 7 86 135 70 149 -8 7 -9 5 -5 -7z"/>
<path d="M2590 3872 c0 -5 7 -17 15 -28 13 -16 16 -17 25 -4 12 19 13 33 1 25
-5 -3 -12 -1 -16 5 -7 12 -25 13 -25 2z"/>
<path d="M1211 3818 c11 -79 20 -109 31 -102 12 8 3 106 -13 135 -18 34 -26
20 -18 -33z"/>
<path d="M2460 3860 c0 -13 18 -22 24 -11 3 5 -1 11 -9 15 -8 3 -15 1 -15 -4z"/>
<path d="M3956 3798 c-31 -57 -40 -86 -42 -133 -5 -96 -15 -153 -30 -165 -8
-8 -11 -22 -7 -40 3 -16 -3 -52 -12 -80 -10 -30 -15 -66 -12 -85 3 -18 2 -50
-3 -71 l-9 -38 24 30 c13 16 34 64 46 107 13 42 26 77 30 77 4 0 11 15 15 33
3 17 15 43 25 56 12 15 19 39 18 65 l-1 41 -17 -45 c-33 -84 -45 -110 -53
-110 -4 0 -8 4 -8 8 0 15 61 257 71 283 6 14 9 52 7 83 l-3 58 -39 -74z m-26
-382 c0 -8 -7 -16 -15 -20 -15 -5 -21 14 -8 27 11 12 23 8 23 -7z"/>
<path d="M941 3848 c0 -10 -5 -18 -11 -18 -5 0 -10 -7 -10 -16 0 -8 5 -12 10
-9 16 10 11 -31 -5 -45 -19 -16 -19 -54 0 -70 12 -10 16 -9 21 6 3 11 10 29
15 42 5 13 6 29 2 35 -4 7 -10 30 -14 52 -4 22 -7 32 -8 23z"/>
<path d="M590 3805 c0 -9 7 -24 16 -32 14 -15 15 -14 12 12 -3 30 -28 48 -28
20z"/>
<path d="M460 3760 c0 -5 7 -13 17 -18 9 -5 14 -16 11 -23 -3 -8 6 -23 20 -33
14 -11 22 -15 19 -9 -4 6 -2 13 5 15 8 3 5 11 -8 25 -10 12 -25 29 -32 37 -14
18 -32 21 -32 6z"/>
<path d="M2475 3761 c-6 -10 53 -46 62 -38 2 3 -9 14 -26 26 -17 12 -32 17
-36 12z"/>
<path d="M618 3732 c-16 -2 -28 -8 -28 -13 0 -12 40 -27 60 -23 8 1 29 3 45 3
17 1 35 9 41 19 10 16 7 17 -40 17 -28 0 -63 -1 -78 -3z"/>
<path d="M1006 3724 c-3 -9 -6 -28 -6 -42 1 -26 1 -26 15 -8 16 22 20 66 6 66
-5 0 -12 -7 -15 -16z"/>
<path d="M770 3719 c0 -5 5 -7 10 -4 6 3 10 8 10 11 0 2 -4 4 -10 4 -5 0 -10
-5 -10 -11z"/>
<path d="M926 3654 c-10 -25 -7 -34 9 -34 8 0 15 9 15 19 0 26 -16 35 -24 15z"/>
<path d="M2430 3663 c0 -8 73 -53 84 -53 15 0 3 17 -27 38 -33 22 -57 28 -57
15z"/>
<path d="M2624 3655 c-3 -8 -4 -20 -2 -27 3 -7 7 -1 10 15 6 29 1 36 -8 12z"/>
<path d="M1043 3623 c-18 -7 -16 -23 2 -23 8 0 15 7 15 15 0 8 -1 15 -2 14 -2
0 -9 -3 -15 -6z"/>
<path d="M2380 3581 c0 -10 43 -41 83 -58 15 -7 27 -16 27 -21 0 -5 9 -12 20
-15 14 -4 20 0 20 12 0 9 -8 17 -19 18 -10 1 -36 18 -57 37 -36 34 -74 47 -74
27z"/>
<path d="M2550 3581 c0 -5 5 -13 10 -16 6 -3 10 -2 10 4 0 5 -4 13 -10 16 -5
3 -10 2 -10 -4z"/>
<path d="M1301 3553 c-1 -17 4 -35 10 -38 16 -11 17 -3 3 35 l-12 35 -1 -32z"/>
<path d="M3423 3572 c-7 -5 -16 -30 -19 -58 -4 -36 -3 -45 5 -34 12 17 13 4 1
-25 -9 -22 -7 -24 -26 33 -10 30 -25 -26 -18 -67 13 -70 20 -68 64 20 23 46
47 90 52 97 8 9 6 12 -6 12 -9 0 -19 -7 -22 -15 -11 -28 -26 -16 -19 15 7 32
6 34 -12 22z"/>
<path d="M907 3543 c-4 -3 -7 -11 -7 -17 0 -6 5 -5 12 2 6 6 9 14 7 17 -3 3
-9 2 -12 -2z"/>
<path d="M785 3510 c3 -5 8 -10 11 -10 2 0 4 5 4 10 0 6 -5 10 -11 10 -5 0 -7
-4 -4 -10z"/>
<path d="M2671 3498 c-10 -25 -35 -54 -75 -85 -18 -15 -28 -34 -32 -62 -6 -43
9 -58 21 -20 5 14 10 17 19 10 9 -8 15 1 25 37 9 37 18 50 41 61 23 10 30 19
30 41 0 37 -17 48 -29 18z"/>
<path d="M831 3466 c-9 -10 -9 -16 -1 -21 17 -10 37 12 24 25 -8 8 -15 6 -23
-4z"/>
<path d="M1460 3477 c0 -2 9 -22 20 -45 11 -22 20 -48 20 -56 0 -8 5 -18 10
-21 6 -4 10 -63 10 -145 l0 -139 28 -3 c22 -2 28 -8 30 -35 4 -38 12 -41 37
-13 10 11 35 25 56 32 l38 11 -25 19 c-13 11 -22 24 -19 28 3 5 -4 14 -15 20
-12 6 -20 21 -20 36 0 37 -28 84 -49 84 -15 0 -19 10 -23 55 -3 38 -11 62 -26
78 -12 13 -22 29 -22 36 0 7 -4 9 -10 6 -5 -3 -10 -1 -10 4 0 6 5 11 12 11 6
0 3 9 -7 20 -16 17 -35 27 -35 17z"/>
<path d="M1330 3445 c0 -18 -5 -25 -20 -25 -24 0 -32 -28 -28 -100 3 -57 28
-86 28 -33 0 22 5 29 20 30 26 2 44 -32 36 -69 -4 -20 -1 -35 11 -46 15 -15
16 -14 9 22 -5 26 -4 36 3 31 6 -3 14 -24 17 -46 4 -22 10 -37 14 -32 8 9 -17
157 -31 185 -5 10 -9 31 -9 46 0 26 -25 62 -43 62 -4 0 -7 -11 -7 -25z m38
-87 c-4 -40 -19 -40 -36 1 -12 30 -11 31 14 31 23 0 25 -3 22 -32z"/>
<path d="M3321 3412 c-7 -13 -16 -53 -20 -90 -5 -37 -11 -74 -14 -82 -4 -8 -3
-22 3 -30 8 -13 11 -12 24 5 17 22 21 65 7 65 -5 0 -2 30 5 67 16 74 14 100
-5 65z"/>
<path d="M3785 3421 c-23 -38 -69 -221 -55 -221 9 0 23 36 45 110 7 25 18 60
23 77 10 31 1 55 -13 34z"/>
<path d="M2310 3394 c0 -3 19 -24 42 -46 27 -25 44 -35 47 -27 2 7 -9 23 -25
36 -36 30 -64 46 -64 37z"/>
<path d="M2436 3363 c-6 -14 -5 -15 5 -6 7 7 10 15 7 18 -3 3 -9 -2 -12 -12z"/>
<path d="M1890 3324 c0 -28 61 -117 88 -129 19 -8 22 -15 17 -42 -5 -28 -2
-33 32 -54 21 -13 44 -23 51 -21 6 2 12 -2 12 -8 0 -5 -5 -10 -11 -10 -22 0
-38 -32 -25 -52 9 -15 8 -21 -4 -28 -25 -16 -34 -11 -16 9 10 10 13 21 8 22
-5 2 -13 14 -16 27 -6 17 -3 22 10 22 27 0 10 10 -25 15 -17 2 -29 0 -26 -5 3
-5 13 -7 23 -4 9 2 7 -1 -5 -7 -13 -7 -23 -16 -23 -21 0 -19 -38 -7 -44 15 -6
21 -7 21 -21 3 -13 -17 -13 -21 2 -31 9 -7 13 -17 9 -23 -4 -7 -2 -12 5 -12 7
0 4 -7 -7 -15 -16 -12 -16 -14 -3 -15 9 0 25 12 35 28 15 23 15 25 1 13 -15
-12 -17 -11 -17 3 0 9 8 16 20 16 11 0 20 -7 20 -15 0 -13 4 -14 23 -4 20 11
21 11 8 -4 -7 -10 -19 -17 -25 -17 -12 0 -56 -41 -56 -51 0 -3 10 -5 23 -6 12
0 16 1 10 4 -7 3 -13 9 -13 14 0 6 5 7 10 4 6 -3 13 1 16 9 7 18 34 22 34 6 0
-5 -4 -10 -9 -10 -5 0 -12 -7 -15 -16 -5 -14 -4 -15 9 -4 18 15 19 7 3 -23
-10 -20 -10 -21 5 -8 15 11 17 11 17 -1 0 -8 -10 -20 -22 -26 -15 -7 -18 -11
-8 -11 9 -1 21 4 27 10 13 13 22 1 25 -35 1 -14 6 -26 10 -26 4 0 5 -7 2 -15
-4 -8 -1 -15 5 -15 7 0 11 12 9 28 -2 21 1 27 17 27 11 1 23 -4 28 -10 5 -6
11 -4 18 8 5 9 15 17 20 17 6 0 7 -6 3 -12 -5 -8 -1 -8 10 1 16 13 17 12 11
-11 -9 -35 8 -42 36 -17 13 11 19 18 12 15 -11 -6 -43 18 -43 34 0 4 10 10 22
13 12 4 19 9 16 12 -3 4 -16 2 -27 -5 -14 -7 -21 -7 -21 0 0 8 39 30 55 30 1
0 2 -13 1 -29 -1 -17 1 -28 4 -26 4 2 14 -5 23 -16 9 -10 13 -19 7 -19 -8 0
-6 -38 4 -47 2 -3 14 1 27 8 22 11 22 12 4 25 -16 12 -16 16 -4 30 12 15 11
16 -11 9 -23 -7 -23 -7 -7 9 23 23 22 29 -3 16 -16 -9 -18 -8 -14 5 4 8 10 15
15 15 5 0 9 5 9 12 0 6 -9 3 -20 -7 -22 -20 -26 -14 -8 14 16 27 44 16 42 -17
0 -15 4 -30 9 -34 7 -4 6 -13 -4 -24 -12 -16 -12 -17 3 -11 12 4 15 2 11 -9
-3 -7 0 -14 6 -14 6 0 16 -12 21 -26 9 -23 11 -24 26 -10 8 9 22 16 30 16 9 0
12 5 8 12 -4 6 -3 8 4 4 5 -3 12 -3 15 1 2 5 2 2 0 -5 -1 -8 2 -10 9 -6 7 4 8
3 4 -4 -4 -7 -1 -12 9 -12 9 0 13 -5 10 -10 -4 -6 -12 -7 -18 -4 -7 4 -8 3 -4
-1 13 -15 35 -14 41 1 3 8 1 14 -4 14 -6 0 -9 6 -8 13 2 6 -3 11 -9 9 -7 -1
-13 4 -13 11 0 7 -9 19 -19 26 -11 8 -17 21 -14 30 4 11 0 9 -10 -4 -9 -11
-17 -15 -17 -8 0 6 -3 19 -7 29 -4 12 -3 15 5 10 7 -4 12 -2 12 3 0 16 -16 13
-30 -4 -7 -8 -8 -15 -4 -15 5 0 14 -10 19 -22 6 -13 15 -23 22 -23 6 0 15 -4
20 -9 5 -5 -4 -6 -21 -2 -24 6 -27 5 -18 -6 8 -11 6 -17 -10 -27 -19 -12 -20
-11 -15 8 3 15 0 21 -10 21 -11 0 -13 4 -6 13 5 6 8 18 7 25 -1 6 -2 21 -3 33
0 11 -6 17 -11 14 -6 -4 -8 -11 -5 -16 4 -5 8 -19 10 -31 3 -15 1 -18 -6 -11
-13 13 -22 86 -9 78 5 -3 11 -1 14 4 8 13 -4 41 -17 41 -7 0 -7 -4 1 -12 16
-16 15 -25 -3 -25 -8 0 -15 4 -15 9 0 14 -40 9 -46 -7 -4 -8 -11 -15 -16 -15
-6 0 -8 7 -5 14 4 10 1 13 -9 9 -7 -3 -14 -9 -14 -14 0 -5 -5 -9 -11 -9 -5 0
-8 4 -5 9 6 10 -24 25 -32 16 -3 -3 0 -5 6 -5 7 0 12 -7 12 -15 0 -8 -5 -15
-11 -15 -5 0 -7 5 -4 10 3 6 -1 10 -9 10 -9 0 -13 -6 -10 -13 3 -8 -2 -20 -11
-27 -19 -16 -32 -3 -42 43 -4 21 -12 27 -32 28 -14 0 -20 3 -14 6 7 2 15 3 17
1 3 -2 12 6 21 17 16 20 16 20 10 -2 -6 -23 8 -32 20 -13 4 6 11 7 17 4 6 -4
8 -1 6 7 -3 8 -10 13 -15 12 -6 -1 -9 14 -8 33 2 27 -1 34 -11 30 -16 -6 -18
3 -5 23 8 12 11 12 23 0 14 -15 17 -38 6 -55 -8 -12 0 -24 14 -24 5 0 7 4 3 9
-3 5 -1 12 4 16 6 3 8 12 4 20 -3 9 1 15 8 15 18 -1 88 -39 72 -40 -7 0 -13
-5 -13 -11 0 -5 5 -7 10 -4 6 4 17 1 25 -5 9 -8 15 -8 15 -2 0 6 -4 12 -8 14
-4 2 -25 25 -47 51 -22 27 -56 57 -75 67 -19 10 -44 28 -55 39 -11 12 -33 34
-49 49 -16 15 -46 43 -67 62 -81 77 -79 76 -79 54z m130 -300 c0 -2 -9 -4 -21
-4 -11 0 -18 4 -14 10 5 8 35 3 35 -6z m80 -14 c0 -5 -5 -10 -11 -10 -5 0 -7
5 -4 10 3 6 8 10 11 10 2 0 4 -4 4 -10z m-73 -72 c-3 -8 -6 -5 -6 6 -1 11 2
17 5 13 3 -3 4 -12 1 -19z m48 -8 c3 -5 0 -10 -9 -10 -8 0 -16 -6 -19 -12 -2
-7 -8 -10 -12 -6 -8 8 12 38 26 38 4 0 11 -4 14 -10z m25 -74 c0 -5 -3 -6 -7
-3 -3 4 -12 2 -20 -5 -19 -15 -29 -2 -13 17 11 13 10 14 -4 9 -19 -7 -21 7 -4
24 10 10 16 8 30 -10 10 -13 18 -27 18 -32z m64 8 c3 -9 2 -12 -5 -9 -5 4 -16
1 -24 -5 -10 -8 -15 -9 -15 -2 0 8 24 29 36 32 1 0 5 -7 8 -16z m46 -49 c0 -2
-7 -5 -15 -9 -9 -3 -15 0 -15 9 0 9 6 12 15 9 8 -4 15 -7 15 -9z"/>
<path d="M3237 3293 c-12 -11 -8 -89 6 -115 13 -27 37 -26 37 0 0 15 -2 15
-10 2 -7 -11 -10 5 -10 53 0 62 -6 78 -23 60z"/>
<path d="M2423 3217 c-3 -5 10 -25 30 -43 34 -32 37 -33 46 -16 7 14 6 25 -4
39 -16 23 -62 36 -72 20z"/>
<path d="M3721 3174 c0 -11 3 -14 6 -6 3 7 2 16 -1 19 -3 4 -6 -2 -5 -13z"/>
<path d="M2543 3147 c5 -15 37 -22 37 -9 0 5 -9 12 -21 15 -13 3 -19 1 -16 -6z"/>
<path d="M2931 3124 c0 -11 3 -14 6 -6 3 7 2 16 -1 19 -3 4 -6 -2 -5 -13z"/>
<path d="M1945 3081 c-6 -11 13 -26 22 -17 4 3 1 6 -6 6 -7 0 -9 5 -6 10 3 6
4 10 1 10 -3 0 -7 -4 -11 -9z"/>
<path d="M2602 3065 c0 -16 2 -22 5 -12 2 9 2 23 0 30 -3 6 -5 -1 -5 -18z"/>
<path d="M3270 3075 c0 -8 4 -15 10 -15 5 0 7 7 4 15 -4 8 -8 15 -10 15 -2 0
-4 -7 -4 -15z"/>
<path d="M2186 3022 c-4 -4 -13 -7 -19 -7 -7 0 -12 -10 -12 -22 0 -12 -6 -28
-12 -34 -15 -15 -17 -29 -5 -29 5 0 15 12 22 28 8 15 23 34 33 43 12 9 16 19
10 22 -6 4 -13 3 -17 -1z"/>
<path d="M2500 3005 c0 -8 5 -15 10 -15 6 0 10 7 10 15 0 8 -4 15 -10 15 -5 0
-10 -7 -10 -15z"/>
<path d="M1896 2983 c-6 -14 -5 -15 5 -6 7 7 10 15 7 18 -3 3 -9 -2 -12 -12z"/>
<path d="M2184 2979 c-3 -5 1 -9 8 -9 11 0 10 -2 0 -9 -11 -6 -10 -10 3 -15
19 -7 48 11 40 24 -8 12 -44 19 -51 9z m46 -13 c0 -3 -4 -8 -10 -11 -5 -3 -10
-1 -10 4 0 6 5 11 10 11 6 0 10 -2 10 -4z"/>
<path d="M2256 2962 c-3 -5 1 -9 9 -9 8 0 15 4 15 9 0 4 -4 8 -9 8 -6 0 -12
-4 -15 -8z"/>
<path d="M2492 2894 c-21 -22 -31 -41 -28 -51 6 -14 4 -14 -10 -2 -16 13 -16
12 -5 -9 12 -22 14 -22 25 -6 12 15 13 15 19 0 10 -26 36 -19 43 12 3 15 10
40 15 56 12 37 12 36 -8 35 -10 0 -33 -16 -51 -35z"/>
<path d="M2350 2909 c0 -5 5 -7 10 -4 6 3 10 8 10 11 0 2 -4 4 -10 4 -5 0 -10
-5 -10 -11z"/>
<path d="M2808 2895 c-3 -14 -2 -25 2 -25 5 0 13 -38 20 -85 7 -47 16 -88 21
-91 8 -5 15 64 9 91 -1 6 -4 26 -6 45 -5 42 -23 90 -34 90 -4 0 -10 -11 -12
-25z"/>
<path d="M1940 2900 c0 -5 7 -7 15 -4 8 4 15 8 15 10 0 2 -7 4 -15 4 -8 0 -15
-4 -15 -10z"/>
<path d="M1947 2884 c-7 -7 2 -34 12 -34 4 0 7 9 8 20 2 19 -8 26 -20 14z"/>
<path d="M1940 2830 c-12 -7 -10 -9 8 -7 12 0 22 5 22 9 0 11 -12 10 -30 -2z"/>
<path d="M1860 2806 c0 -9 5 -16 10 -16 6 0 10 4 10 9 0 6 -4 13 -10 16 -5 3
-10 -1 -10 -9z"/>
<path d="M2125 2800 c-3 -5 1 -10 10 -10 9 0 13 5 10 10 -3 6 -8 10 -10 10 -2
0 -7 -4 -10 -10z"/>
<path d="M2214 2792 c-11 -10 -32 -18 -46 -18 -15 1 -26 -1 -26 -4 2 -19 -3
-30 -12 -25 -5 3 -7 0 -5 -7 5 -12 22 -14 68 -9 4 1 7 6 7 12 0 8 -4 8 -14 0
-8 -7 -17 -8 -20 -3 -7 12 3 22 25 22 9 0 24 11 33 25 20 30 17 32 -10 7z"/>
<path d="M1945 2790 c-19 -8 -19 -9 3 -9 12 -1 22 4 22 9 0 6 -1 10 -2 9 -2 0
-12 -4 -23 -9z"/>
<path d="M1550 2780 c0 -5 5 -10 11 -10 5 0 7 5 4 10 -3 6 -8 10 -11 10 -2 0
-4 -4 -4 -10z"/>
<path d="M2060 2770 c-14 -11 -18 -19 -10 -18 10 2 14 -4 12 -21 -2 -18 2 -22
15 -17 16 5 16 5 2 -6 -9 -7 -14 -19 -12 -25 7 -20 23 -15 23 7 0 11 5 19 11
18 6 -2 13 3 15 10 1 7 0 8 -3 2 -2 -5 -9 -8 -14 -4 -5 3 -5 13 1 25 7 11 7
19 1 19 -5 0 -12 -8 -15 -17 -3 -10 -4 -3 -2 15 1 17 2 32 2 32 -1 0 -12 -9
-26 -20z"/>
<path d="M2291 2770 c-21 -18 -25 -19 -35 -4 -11 14 -13 14 -27 -2 -9 -11 -9
-15 -1 -10 7 4 14 1 18 -8 5 -12 10 -13 30 -4 13 6 24 15 24 20 0 5 5 6 11 2
6 -3 -2 -14 -20 -25 -17 -10 -31 -24 -31 -30 0 -7 8 -5 20 6 17 15 20 16 20 3
0 -9 -7 -18 -15 -22 -8 -3 -15 -10 -15 -16 0 -6 7 -4 16 4 8 9 19 14 24 11 4
-3 11 2 14 11 9 24 7 31 -4 14 -8 -13 -10 -12 -10 3 0 9 4 17 9 17 5 0 9 11 9
25 0 30 -6 31 -37 5z"/>
<path d="M1857 2768 c-2 -7 0 -21 5 -30 6 -12 5 -18 -3 -18 -7 0 -5 -9 5 -25
9 -14 14 -30 11 -35 -3 -5 -1 -11 5 -15 6 -4 10 6 10 24 0 17 -5 31 -11 31 -6
0 -9 6 -6 13 2 6 13 11 23 9 12 -1 8 4 -11 15 -17 9 -25 18 -17 20 14 5 17 23
3 23 -5 0 -11 -6 -14 -12z"/>
<path d="M2007 2767 c-3 -8 1 -14 8 -14 7 0 11 6 8 14 -3 7 -6 13 -8 13 -2 0
-5 -6 -8 -13z"/>
<path d="M1963 2755 c0 -8 6 -15 13 -15 8 0 11 6 8 15 -4 8 -9 15 -13 15 -4 0
-8 -7 -8 -15z"/>
<path d="M2370 2752 c-25 -17 -37 -52 -18 -52 5 0 6 -4 3 -10 -3 -5 -1 -10 5
-10 7 0 9 9 6 23 -3 12 -3 16 0 10 12 -26 31 -13 28 18 -2 18 0 28 6 24 6 -3
10 -13 10 -22 0 -10 6 -13 16 -9 9 3 12 2 9 -5 -4 -6 -13 -8 -19 -6 -7 3 -13
-1 -13 -8 0 -8 7 -11 16 -7 14 5 14 3 2 -11 -8 -10 -9 -17 -3 -17 6 0 14 9 17
20 6 18 17 24 38 21 4 0 7 4 7 10 0 6 7 9 14 6 10 -4 13 -1 9 9 -7 18 -11 18
-30 -1 -14 -14 -17 -14 -34 1 -10 9 -16 21 -13 25 9 15 -30 8 -56 -9z"/>
<path d="M1598 2753 c7 -3 16 -2 19 1 4 3 -2 6 -13 5 -11 0 -14 -3 -6 -6z"/>
<path d="M2230 2728 c0 -9 5 -20 10 -23 6 -4 8 -11 5 -16 -4 -5 -1 -9 5 -9 7
0 9 8 5 23 -10 30 -25 46 -25 25z"/>
<path d="M1968 2723 c7 -3 16 -2 19 1 4 3 -2 6 -13 5 -11 0 -14 -3 -6 -6z"/>
<path d="M2150 2709 c0 -5 -4 -7 -10 -4 -5 3 -10 1 -10 -5 0 -7 9 -9 23 -5 21
6 21 6 3 -9 -18 -14 -18 -16 -3 -16 10 0 20 7 23 15 4 8 10 13 14 10 5 -3 11
-1 15 4 3 6 -3 8 -15 6 -11 -2 -20 0 -20 6 0 5 -4 9 -10 9 -5 0 -10 -5 -10
-11z"/>
<path d="M1392 2689 c-17 -27 -14 -38 4 -14 16 20 16 19 9 -4 -5 -16 -4 -21 4
-17 13 8 15 42 3 50 -4 2 -13 -4 -20 -15z"/>
<path d="M1530 2699 c0 -5 5 -7 10 -4 6 3 10 8 10 11 0 2 -4 4 -10 4 -5 0 -10
-5 -10 -11z"/>
<path d="M1775 2691 c6 -18 4 -22 -6 -15 -20 12 -40 14 -33 3 3 -5 9 -7 14 -4
11 7 29 -17 27 -35 -2 -8 -7 -22 -12 -30 -8 -13 -7 -13 8 -1 9 7 14 17 11 22
-3 5 3 9 13 9 17 1 16 2 -2 17 -20 15 -20 15 3 10 15 -4 22 -1 19 6 -2 7 -9
12 -16 12 -6 0 -16 7 -22 15 -8 11 -9 9 -4 -9z"/>
<path d="M1825 2665 c0 -18 3 -31 8 -28 4 2 7 13 7 24 0 11 5 17 10 14 6 -4 7
-11 4 -17 -4 -7 -2 -8 4 -4 18 11 14 22 -10 33 -21 10 -23 8 -23 -22z"/>
<path d="M1968 2683 c7 -3 16 -2 19 1 4 3 -2 6 -13 5 -11 0 -14 -3 -6 -6z"/>
<path d="M2368 2676 c-19 -14 -25 -32 -8 -21 6 4 18 1 26 -6 11 -9 18 -9 26
-1 9 9 6 12 -12 13 -14 0 -19 3 -12 6 13 5 17 23 5 23 -5 0 -16 -7 -25 -14z"/>
<path d="M1666 2665 c4 -8 11 -15 16 -15 6 0 5 6 -2 15 -7 8 -14 15 -16 15 -2
0 -1 -7 2 -15z"/>
<path d="M2168 2649 c-15 -16 -23 -29 -18 -29 11 0 50 41 50 52 0 11 -1 10
-32 -23z"/>
<path d="M2089 2663 c-10 -2 -16 -15 -16 -33 0 -24 3 -28 14 -18 8 6 12 17 9
23 -2 7 1 18 7 24 6 6 9 10 7 10 -3 -1 -12 -3 -21 -6z"/>
<path d="M3867 2663 c-11 -10 -8 -73 2 -73 5 0 12 8 15 18 2 9 7 27 11 40 6
21 -12 32 -28 15z m10 -35 c-3 -8 -6 -5 -6 6 -1 11 2 17 5 13 3 -3 4 -12 1
-19z"/>
<path d="M2207 2641 c-4 -17 -3 -21 5 -13 5 5 8 16 6 23 -3 8 -7 3 -11 -10z"/>
<path d="M3759 2647 c-13 -10 -14 -15 -4 -24 10 -9 14 -7 19 10 7 27 5 28 -15
14z"/>
<path d="M1655 2638 c1 -7 8 -12 14 -10 9 2 10 -9 5 -35 -7 -35 -6 -37 10 -24
13 11 14 16 4 22 -10 7 -10 9 1 9 7 0 11 6 8 14 -3 8 -1 17 6 19 7 2 9 7 5 11
-3 4 -15 3 -26 -3 -14 -7 -22 -7 -25 -1 -3 6 -4 5 -2 -2z"/>
<path d="M3575 2638 c-4 -10 -4 -26 0 -35 8 -17 8 -17 12 0 3 9 3 25 0 35 -4
16 -4 16 -12 0z"/>
<path d="M1726 2625 c4 -8 11 -15 16 -15 6 0 5 6 -2 15 -7 8 -14 15 -16 15 -2
0 -1 -7 2 -15z"/>
<path d="M1858 2628 c5 -5 16 -8 23 -6 8 3 3 7 -10 11 -17 4 -21 3 -13 -5z"/>
<path d="M1843 2604 c0 -7 4 -11 8 -8 4 2 10 0 14 -6 9 -15 25 -12 25 4 0 7
-10 16 -23 18 -15 3 -24 0 -24 -8z"/>
<path d="M2173 2600 c1 -11 6 -20 12 -20 5 0 3 -5 -5 -10 -9 -6 -10 -10 -3
-10 17 0 25 17 18 40 -8 26 -24 26 -22 0z"/>
<path d="M1480 2599 c0 -5 5 -7 10 -4 6 3 10 8 10 11 0 2 -4 4 -10 4 -5 0 -10
-5 -10 -11z"/>
<path d="M1973 2595 c0 -8 4 -15 9 -15 4 0 8 7 8 15 0 8 -4 15 -8 15 -5 0 -9
-7 -9 -15z"/>
<path d="M2005 2600 c3 -5 8 -10 11 -10 2 0 4 5 4 10 0 6 -5 10 -11 10 -5 0
-7 -4 -4 -10z"/>
<path d="M1727 2589 c7 -7 15 -10 18 -7 3 3 -2 9 -12 12 -14 6 -15 5 -6 -5z"/>
<path d="M1773 2575 c0 -8 4 -12 9 -9 5 3 6 10 3 15 -9 13 -12 11 -12 -6z"/>
<path d="M1908 2583 c6 -2 18 -2 25 0 6 3 1 5 -13 5 -14 0 -19 -2 -12 -5z"/>
<path d="M1482 2575 c4 -4 3 -14 -4 -22 -8 -11 -7 -12 6 -7 19 7 21 20 4 30
-7 4 -10 4 -6 -1z"/>
<path d="M1490 2525 c0 -9 -4 -14 -9 -10 -5 3 -12 1 -15 -4 -4 -5 -2 -12 3
-15 5 -4 13 -1 16 5 4 5 13 8 21 5 18 -7 18 2 -1 20 -13 14 -15 14 -15 -1z"/>
<path d="M2806 2532 c-6 -10 15 -37 37 -45 25 -9 23 29 -2 43 -23 12 -28 12
-35 2z"/>
<path d="M3376 2435 c-3 -9 0 -15 9 -15 8 0 15 7 15 15 0 8 -4 15 -9 15 -5 0
-11 -7 -15 -15z"/>
<path d="M3222 2383 c2 -17 9 -28 18 -28 23 0 23 29 0 43 -20 12 -21 11 -18
-15z"/>
<path d="M3080 2351 c0 -6 5 -13 10 -16 6 -3 10 1 10 9 0 9 -4 16 -10 16 -5 0
-10 -4 -10 -9z"/>
<path d="M2868 2335 c-10 -10 2 -37 25 -60 14 -13 22 -15 25 -7 7 23 30 12 37
-18 4 -17 11 -27 17 -24 6 4 6 10 -1 17 -6 6 -11 20 -11 32 0 12 -6 29 -12 38
-14 18 -69 33 -80 22z"/>
<path d="M3050 2306 c0 -39 10 -54 31 -49 19 5 27 23 9 23 -5 0 -12 11 -16 25
-8 32 -24 32 -24 1z"/>
<path d="M670 721 c0 -5 6 -12 13 -14 7 -4 3 -8 -10 -12 -13 -4 -20 -11 -17
-16 3 -5 0 -18 -7 -30 -8 -15 -8 -19 0 -15 7 5 11 -6 11 -33 0 -22 5 -42 13
-44 6 -3 2 -6 -10 -6 -15 -1 -25 -9 -29 -26 -3 -14 -10 -25 -14 -25 -4 0 -7
-15 -6 -32 1 -23 -3 -33 -14 -33 -8 0 -14 7 -12 16 4 24 -23 30 -60 14 -18 -8
-26 -14 -17 -15 16 0 59 -40 44 -40 -5 0 -4 -5 3 -12 7 -7 12 -18 12 -26 0
-16 24 -42 40 -42 6 0 8 -5 4 -11 -3 -6 0 -15 7 -20 11 -7 9 -10 -8 -15 -18
-5 -20 -9 -10 -19 29 -29 87 -28 87 1 0 7 -8 18 -19 23 -10 6 -24 25 -30 43
-7 18 -17 41 -22 50 -19 37 -11 50 24 43 17 -4 32 -8 32 -9 0 0 8 -15 18 -33
9 -17 17 -38 17 -46 0 -8 9 -26 20 -40 13 -17 20 -40 20 -71 0 -31 4 -46 13
-45 18 1 54 17 40 18 -15 1 -17 52 -4 98 7 22 6 33 -2 37 -7 2 -4 5 5 5 9 1
19 -3 22 -8 3 -5 15 -7 25 -4 16 4 21 -2 26 -31 4 -20 13 -36 20 -36 7 0 15
-5 17 -11 2 -7 26 -1 65 16 34 16 60 32 58 36 -3 4 3 10 12 12 17 4 17 5 1 6
-10 0 -18 6 -18 12 0 8 -5 8 -15 -1 -8 -7 -15 -9 -15 -4 0 4 -5 3 -11 -3 -15
-15 -39 7 -39 34 0 32 -36 54 -85 51 -24 -2 -43 -5 -43 -8 2 -22 -5 -30 -25
-30 -26 0 -67 34 -67 55 0 8 -3 15 -7 15 -5 0 -14 12 -20 27 -16 34 -4 43 43
33 29 -7 34 -5 34 10 0 24 -26 43 -50 37 -17 -4 -20 0 -20 28 0 40 23 61 62
56 22 -2 29 1 26 11 -3 7 -13 15 -23 16 -10 2 -33 19 -52 38 -33 34 -53 43
-53 25z m30 -196 c0 -8 -4 -15 -10 -15 -5 0 -10 7 -10 15 0 8 5 15 10 15 6 0
10 -7 10 -15z"/>
<path d="M1934 531 c4 -7 -2 -15 -16 -20 -13 -6 -18 -10 -12 -10 5 -1 34 -21
63 -46 29 -25 60 -45 69 -45 9 1 44 14 77 31 33 16 51 26 40 23 -11 -4 -48 -7
-82 -8 -51 -1 -65 3 -78 19 -9 11 -14 14 -10 8 4 -8 1 -11 -9 -7 -9 3 -14 11
-13 17 1 7 -7 10 -17 9 -17 -3 -18 -1 -7 11 9 12 9 17 0 23 -8 4 -9 3 -5 -5z"/>
<path d="M3175 523 c-52 -9 -65 -14 -60 -22 3 -5 1 -20 -4 -33 -7 -17 -10 -18
-10 -5 -1 19 -21 24 -21 5 0 -7 -3 -24 -7 -37 -6 -22 -4 -23 24 -19 37 5 62
-24 42 -48 -6 -8 -9 -17 -6 -21 4 -3 15 5 26 18 l20 24 1 -22 c0 -12 -9 -27
-20 -33 -11 -6 -20 -21 -20 -33 1 -20 2 -20 11 -4 6 9 22 17 38 17 22 0 30 -7
41 -36 16 -40 52 -69 43 -34 -4 14 0 20 11 20 22 0 20 36 -3 59 -10 10 -21 25
-23 32 -5 11 -8 12 -19 2 -21 -20 -30 -15 -23 12 5 19 2 25 -10 25 -9 0 -16 8
-16 20 0 11 -4 20 -10 20 -5 0 -10 7 -10 15 0 8 -7 15 -16 15 -8 0 -12 5 -9
10 4 6 11 7 17 4 41 -25 122 -7 98 22 -15 17 -60 31 -85 27z"/>
<path d="M1491 494 c0 -11 3 -14 6 -6 3 7 2 16 -1 19 -3 4 -6 -2 -5 -13z"/>
<path d="M347 487 c-2 -6 2 -25 10 -41 12 -22 17 -26 24 -15 6 10 9 6 9 -13 0
-20 5 -28 18 -28 14 0 15 2 2 10 -12 8 -13 13 -3 29 10 16 10 25 0 43 -13 25
-53 35 -60 15z"/>
<path d="M2058 463 c7 -3 16 -2 19 1 4 3 -2 6 -13 5 -11 0 -14 -3 -6 -6z"/>
<path d="M290 455 c0 -18 19 -40 26 -32 4 4 0 15 -9 24 -9 10 -17 13 -17 8z"/>
<path d="M2780 431 c0 -38 11 -51 46 -51 l33 0 -32 35 c-36 40 -47 43 -47 16z"/>
<path d="M3894 419 c-7 -12 15 -31 28 -23 9 6 -1 34 -12 34 -5 0 -12 -5 -16
-11z"/>
<path d="M2989 403 c-1 -5 -1 -12 0 -17 1 -5 -14 -6 -34 -3 -73 12 -104 -42
-40 -69 41 -17 48 -18 39 -3 -4 7 0 9 14 5 16 -5 26 0 43 24 13 16 31 30 41
30 22 0 24 26 2 34 -22 8 -64 8 -65 -1z"/>
<path d="M2075 390 c-3 -5 -2 -10 4 -10 5 0 13 5 16 10 3 6 2 10 -4 10 -5 0
-13 -4 -16 -10z"/>
<path d="M1210 381 c0 -5 9 -7 20 -4 11 3 20 7 20 9 0 2 -9 4 -20 4 -11 0 -20
-4 -20 -9z"/>
<path d="M2838 353 c7 -3 16 -2 19 1 4 3 -2 6 -13 5 -11 0 -14 -3 -6 -6z"/>
<path d="M3770 329 c0 -5 -4 -7 -10 -4 -5 3 -10 0 -10 -8 0 -10 8 -13 24 -10
16 3 23 10 19 19 -6 16 -23 19 -23 3z"/>
<path d="M427 316 c-12 -9 -14 -16 -8 -21 6 -3 11 -1 11 4 0 6 7 11 16 11 13
0 14 -3 5 -13 -14 -18 -5 -26 20 -20 24 7 24 15 1 36 -22 20 -22 20 -45 3z"/>
<path d="M3000 276 c0 -2 9 -6 20 -9 11 -3 18 -1 14 4 -5 9 -34 13 -34 5z"/>
<path d="M260 261 c0 -18 18 -21 30 -6 10 13 9 15 -9 15 -11 0 -21 -4 -21 -9z"/>
<path d="M522 233 c-9 -13 -14 -15 -18 -5 -11 25 -23 11 -17 -20 4 -23 3 -29
-6 -24 -7 5 -20 -1 -31 -14 -10 -12 -22 -21 -27 -21 -20 2 -43 -12 -43 -25 0
-18 14 -18 29 0 12 15 47 11 58 -7 3 -5 -5 -19 -18 -29 -20 -17 -21 -19 -4
-13 11 4 38 12 60 18 22 6 66 19 99 30 49 17 55 22 37 28 -11 5 -21 16 -21 26
0 10 -16 28 -35 41 -34 21 -35 21 -35 3 0 -11 4 -22 9 -26 19 -11 7 -42 -16
-42 -12 0 -20 4 -17 9 4 6 0 14 -7 19 -11 7 -10 11 5 22 10 7 17 21 15 30 -4
16 -5 16 -17 0z m46 -105 c-3 -7 -12 -14 -22 -14 -13 -2 -13 -1 -1 3 8 2 13 9
10 14 -4 5 -1 9 5 9 7 0 10 -6 8 -12z"/>
<path d="M860 241 c-16 -6 -26 -31 -12 -31 4 1 18 7 31 14 16 9 19 14 10 18
-8 3 -21 2 -29 -1z"/>
<path d="M3173 232 c10 -12 9 -14 -8 -9 -11 4 -26 3 -34 -2 -10 -6 -3 -12 25
-22 22 -7 41 -14 44 -14 3 -1 19 -7 35 -14 51 -22 95 -26 95 -9 0 22 -10 28
-35 18 -30 -12 -90 18 -90 44 0 13 -8 20 -22 21 -19 1 -21 -1 -10 -13z m27
-32 c0 -5 -7 -7 -15 -4 -8 4 -15 8 -15 10 0 2 7 4 15 4 8 0 15 -4 15 -10z"/>
<path d="M416 215 c-3 -9 0 -15 9 -15 16 0 20 16 6 24 -5 3 -11 -1 -15 -9z"/>
<path d="M395 70 c-3 -5 1 -10 10 -10 9 0 13 5 10 10 -3 6 -8 10 -10 10 -2 0
-7 -4 -10 -10z"/>
<path d="M3812 59 c-27 -10 -21 -29 10 -29 17 0 18 -2 8 -15 -11 -13 -8 -15
19 -15 23 0 31 5 31 18 1 16 1 16 14 0 9 -13 27 -18 60 -18 45 0 46 1 46 30 0
30 -1 30 -40 24 -27 -4 -40 -3 -40 5 0 13 -75 14 -108 0z"/>
</g>
</svg>
